<mxfile host="Electron" agent="Mozilla/5.0 (Windows NT 10.0; Win64; x64) AppleWebKit/537.36 (KHTML, like Gecko) draw.io/24.7.17 Chrome/128.0.6613.36 Electron/32.0.1 Safari/537.36" version="24.7.17">
  <diagram name="Page-1" id="8378b5f6-a2b2-b727-a746-972ab9d02e00">
    <mxGraphModel dx="2571.5" dy="915" grid="1" gridSize="10" guides="1" tooltips="1" connect="0" arrows="1" fold="1" page="1" pageScale="1.5" pageWidth="1169" pageHeight="827" background="none" math="0" shadow="0">
      <root>
        <mxCell id="0" />
        <mxCell id="1" parent="0" />
        <mxCell id="63" value="1" style="strokeColor=#DEEDFF;fillColor=#ADC3D9" parent="1" vertex="1">
          <mxGeometry x="86.5" y="60" width="40" height="20" as="geometry" />
        </mxCell>
        <mxCell id="64" value="Complete project execution" style="align=left;strokeColor=#DEEDFF;fillColor=#ADC3D9" parent="1" vertex="1">
          <mxGeometry x="126.5" y="60" width="320" height="20" as="geometry" />
        </mxCell>
        <mxCell id="65" value="35 days" style="strokeColor=#DEEDFF;fillColor=#ADC3D9" parent="1" vertex="1">
          <mxGeometry x="446.50000000000176" y="60" width="80.00000000000028" height="20" as="geometry" />
        </mxCell>
        <mxCell id="66" value="16.04.12" style="strokeColor=#DEEDFF;fillColor=#ADC3D9" parent="1" vertex="1">
          <mxGeometry x="526.500000000002" y="60" width="80.00000000000028" height="20" as="geometry" />
        </mxCell>
        <mxCell id="67" value="1.06.12" style="strokeColor=#DEEDFF;fillColor=#ADC3D9" parent="1" vertex="1">
          <mxGeometry x="606.5000000000016" y="60.00000000000023" width="80.00000000000028" height="20" as="geometry" />
        </mxCell>
        <mxCell id="68" value="" style="strokeColor=#DEEDFF" parent="1" vertex="1">
          <mxGeometry x="686.500000000002" y="60.00000000000023" width="20" height="520" as="geometry" />
        </mxCell>
        <mxCell id="69" value="2" style="strokeColor=#DEEDFF;fillColor=#CCE5FF" parent="1" vertex="1">
          <mxGeometry x="86.50000000000026" y="79.99999999999989" width="40" height="20" as="geometry" />
        </mxCell>
        <mxCell id="70" value="Engineering" style="align=left;strokeColor=#DEEDFF;fillColor=#CCE5FF" parent="1" vertex="1">
          <mxGeometry x="126.50000000000026" y="79.99999999999989" width="319.9999999999998" height="20" as="geometry" />
        </mxCell>
        <mxCell id="71" value="35 days" style="strokeColor=#DEEDFF;fillColor=#CCE5FF" parent="1" vertex="1">
          <mxGeometry x="446.500000000002" y="79.99999999999983" width="80.00000000000028" height="20" as="geometry" />
        </mxCell>
        <mxCell id="72" value="16.04.12" style="strokeColor=#DEEDFF;fillColor=#CCE5FF" parent="1" vertex="1">
          <mxGeometry x="526.5000000000023" y="79.99999999999983" width="80.00000000000028" height="20" as="geometry" />
        </mxCell>
        <mxCell id="73" value="1.06.12" style="strokeColor=#DEEDFF;fillColor=#CCE5FF" parent="1" vertex="1">
          <mxGeometry x="606.5000000000018" y="80.00000000000011" width="80.00000000000028" height="20" as="geometry" />
        </mxCell>
        <mxCell id="74" value="3" style="strokeColor=#DEEDFF" parent="1" vertex="1">
          <mxGeometry x="86.50000000000027" y="99.99999999999977" width="40" height="20" as="geometry" />
        </mxCell>
        <mxCell id="75" value="Project examination" style="align=left;strokeColor=#DEEDFF" parent="1" vertex="1">
          <mxGeometry x="126.50000000000027" y="99.99999999999977" width="319.9999999999997" height="20.000000000000014" as="geometry" />
        </mxCell>
        <mxCell id="76" value="1 day" style="strokeColor=#DEEDFF" parent="1" vertex="1">
          <mxGeometry x="446.500000000002" y="99.99999999999972" width="80.00000000000028" height="20" as="geometry" />
        </mxCell>
        <mxCell id="77" value="16.04.12" style="strokeColor=#DEEDFF" parent="1" vertex="1">
          <mxGeometry x="526.5000000000023" y="99.99999999999972" width="80.00000000000028" height="20" as="geometry" />
        </mxCell>
        <mxCell id="78" value="16.04.12" style="strokeColor=#DEEDFF" parent="1" vertex="1">
          <mxGeometry x="606.5000000000018" y="100" width="80.00000000000028" height="20" as="geometry" />
        </mxCell>
        <mxCell id="79" value="4" style="strokeColor=#DEEDFF" parent="1" vertex="1">
          <mxGeometry x="86.5" y="120.00000000000017" width="40" height="20" as="geometry" />
        </mxCell>
        <mxCell id="80" value="Material specification" style="align=left;strokeColor=#DEEDFF" parent="1" vertex="1">
          <mxGeometry x="126.5" y="120.00000000000017" width="320" height="20" as="geometry" />
        </mxCell>
        <mxCell id="81" value="2 days" style="strokeColor=#DEEDFF" parent="1" vertex="1">
          <mxGeometry x="446.5000000000017" y="120.00000000000011" width="80.00000000000028" height="20" as="geometry" />
        </mxCell>
        <mxCell id="82" value="17.04.12" style="strokeColor=#DEEDFF" parent="1" vertex="1">
          <mxGeometry x="526.500000000002" y="120.00000000000011" width="80.00000000000028" height="20" as="geometry" />
        </mxCell>
        <mxCell id="83" value="18.04.12" style="strokeColor=#DEEDFF" parent="1" vertex="1">
          <mxGeometry x="606.5000000000015" y="120.0000000000004" width="80.00000000000028" height="20" as="geometry" />
        </mxCell>
        <mxCell id="84" value="5" style="strokeColor=#DEEDFF" parent="1" vertex="1">
          <mxGeometry x="86.49999999999991" y="140.00000000000017" width="40" height="20" as="geometry" />
        </mxCell>
        <mxCell id="85" value="Material ordering" style="align=left;strokeColor=#DEEDFF" parent="1" vertex="1">
          <mxGeometry x="126.49999999999991" y="140.00000000000017" width="320.0000000000001" height="20" as="geometry" />
        </mxCell>
        <mxCell id="86" value="1 day" style="strokeColor=#DEEDFF" parent="1" vertex="1">
          <mxGeometry x="446.50000000000165" y="140.0000000000001" width="80.00000000000028" height="20" as="geometry" />
        </mxCell>
        <mxCell id="87" value="19.04.12" style="strokeColor=#DEEDFF" parent="1" vertex="1">
          <mxGeometry x="526.5000000000019" y="140.0000000000001" width="80.00000000000028" height="20" as="geometry" />
        </mxCell>
        <mxCell id="88" value="19.04.12" style="strokeColor=#DEEDFF" parent="1" vertex="1">
          <mxGeometry x="606.5000000000015" y="140.0000000000004" width="80.00000000000028" height="20" as="geometry" />
        </mxCell>
        <mxCell id="89" value="6" style="strokeColor=#DEEDFF" parent="1" vertex="1">
          <mxGeometry x="86.4999999999999" y="160.00000000000045" width="40" height="20" as="geometry" />
        </mxCell>
        <mxCell id="90" value="Equipment layouting" style="align=left;strokeColor=#DEEDFF" parent="1" vertex="1">
          <mxGeometry x="126.4999999999999" y="160.00000000000045" width="320.0000000000001" height="20" as="geometry" />
        </mxCell>
        <mxCell id="91" value="3 days" style="strokeColor=#DEEDFF" parent="1" vertex="1">
          <mxGeometry x="446.50000000000165" y="160.00000000000034" width="80.00000000000028" height="20" as="geometry" />
        </mxCell>
        <mxCell id="92" value="20.04.12" style="strokeColor=#DEEDFF" parent="1" vertex="1">
          <mxGeometry x="526.5000000000019" y="160.00000000000034" width="80.00000000000028" height="20" as="geometry" />
        </mxCell>
        <mxCell id="93" value="24.04.12" style="strokeColor=#DEEDFF" parent="1" vertex="1">
          <mxGeometry x="606.5000000000015" y="160.00000000000068" width="80.00000000000028" height="20" as="geometry" />
        </mxCell>
        <mxCell id="94" value="7" style="strokeColor=#DEEDFF" parent="1" vertex="1">
          <mxGeometry x="86.50000000000063" y="180.00000000000068" width="40" height="20" as="geometry" />
        </mxCell>
        <mxCell id="95" value="Supervision and meetings" style="align=left;strokeColor=#DEEDFF" parent="1" vertex="1">
          <mxGeometry x="126.50000000000063" y="180.00000000000068" width="319.9999999999994" height="20" as="geometry" />
        </mxCell>
        <mxCell id="96" value="27 days" style="strokeColor=#DEEDFF" parent="1" vertex="1">
          <mxGeometry x="446.5000000000024" y="180.00000000000068" width="80.00000000000028" height="20" as="geometry" />
        </mxCell>
        <mxCell id="97" value="25.04.12" style="strokeColor=#DEEDFF" parent="1" vertex="1">
          <mxGeometry x="526.5000000000027" y="180.00000000000068" width="80.00000000000028" height="20" as="geometry" />
        </mxCell>
        <mxCell id="98" value="31.05.12" style="strokeColor=#DEEDFF" parent="1" vertex="1">
          <mxGeometry x="606.5000000000022" y="180.0000000000009" width="80.00000000000028" height="20" as="geometry" />
        </mxCell>
        <mxCell id="99" value="8" style="strokeColor=#DEEDFF" parent="1" vertex="1">
          <mxGeometry x="86.50000000000064" y="200.00000000000057" width="40" height="20" as="geometry" />
        </mxCell>
        <mxCell id="100" value="Bill of works" style="align=left;strokeColor=#DEEDFF" parent="1" vertex="1">
          <mxGeometry x="126.50000000000064" y="200.00000000000057" width="319.9999999999994" height="20" as="geometry" />
        </mxCell>
        <mxCell id="101" value="1 day" style="strokeColor=#DEEDFF" parent="1" vertex="1">
          <mxGeometry x="446.5000000000024" y="200.00000000000057" width="80.00000000000028" height="20" as="geometry" />
        </mxCell>
        <mxCell id="102" value="1.06.12" style="strokeColor=#DEEDFF" parent="1" vertex="1">
          <mxGeometry x="526.5000000000027" y="200.00000000000057" width="80.00000000000028" height="20" as="geometry" />
        </mxCell>
        <mxCell id="103" value="1.06.12" style="strokeColor=#DEEDFF" parent="1" vertex="1">
          <mxGeometry x="606.5000000000022" y="200.0000000000008" width="80.00000000000028" height="20" as="geometry" />
        </mxCell>
        <mxCell id="104" value="9" style="strokeColor=#DEEDFF;fillColor=#CCE5FF" parent="1" vertex="1">
          <mxGeometry x="86.50000000000037" y="220.00000000000102" width="40" height="20" as="geometry" />
        </mxCell>
        <mxCell id="105" value="Workshop" style="align=left;strokeColor=#DEEDFF;fillColor=#CCE5FF" parent="1" vertex="1">
          <mxGeometry x="126.50000000000037" y="220.00000000000102" width="319.99999999999966" height="20.00000000000003" as="geometry" />
        </mxCell>
        <mxCell id="106" value="20 days" style="strokeColor=#DEEDFF;fillColor=#CCE5FF" parent="1" vertex="1">
          <mxGeometry x="446.5000000000021" y="220.0000000000009" width="80.00000000000028" height="20" as="geometry" />
        </mxCell>
        <mxCell id="107" value="24.04.12" style="strokeColor=#DEEDFF;fillColor=#CCE5FF" parent="1" vertex="1">
          <mxGeometry x="526.5000000000025" y="220.0000000000009" width="80.00000000000028" height="20" as="geometry" />
        </mxCell>
        <mxCell id="108" value="21.05.12" style="strokeColor=#DEEDFF;fillColor=#CCE5FF" parent="1" vertex="1">
          <mxGeometry x="606.5000000000018" y="220.00000000000125" width="80.00000000000028" height="20" as="geometry" />
        </mxCell>
        <mxCell id="109" value="10" style="strokeColor=#DEEDFF" parent="1" vertex="1">
          <mxGeometry x="86.50000000000028" y="240.00000000000102" width="40" height="20" as="geometry" />
        </mxCell>
        <mxCell id="110" value="Project examination and material comparison" style="align=left;strokeColor=#DEEDFF" parent="1" vertex="1">
          <mxGeometry x="126.50000000000028" y="240.00000000000102" width="319.9999999999997" height="20" as="geometry" />
        </mxCell>
        <mxCell id="111" value="2 days" style="strokeColor=#DEEDFF" parent="1" vertex="1">
          <mxGeometry x="446.50000000000205" y="240.0000000000009" width="80.00000000000028" height="20" as="geometry" />
        </mxCell>
        <mxCell id="112" value="24.04.12" style="strokeColor=#DEEDFF" parent="1" vertex="1">
          <mxGeometry x="526.5000000000023" y="240.0000000000009" width="80.00000000000028" height="20" as="geometry" />
        </mxCell>
        <mxCell id="113" value="25.04.12" style="strokeColor=#DEEDFF" parent="1" vertex="1">
          <mxGeometry x="606.5000000000018" y="240.00000000000125" width="80.00000000000028" height="20" as="geometry" />
        </mxCell>
        <mxCell id="114" value="11" style="strokeColor=#DEEDFF" parent="1" vertex="1">
          <mxGeometry x="86.50000000000027" y="260.00000000000125" width="40" height="20" as="geometry" />
        </mxCell>
        <mxCell id="115" value="Preparing distribution boards" style="align=left;strokeColor=#DEEDFF" parent="1" vertex="1">
          <mxGeometry x="126.50000000000027" y="260.00000000000125" width="319.9999999999997" height="20" as="geometry" />
        </mxCell>
        <mxCell id="116" value="2 days" style="strokeColor=#DEEDFF" parent="1" vertex="1">
          <mxGeometry x="446.50000000000205" y="260.00000000000114" width="80.00000000000028" height="20" as="geometry" />
        </mxCell>
        <mxCell id="117" value="26.04.12" style="strokeColor=#DEEDFF" parent="1" vertex="1">
          <mxGeometry x="526.5000000000023" y="260.00000000000114" width="80.00000000000028" height="20" as="geometry" />
        </mxCell>
        <mxCell id="118" value="27.04.12" style="strokeColor=#DEEDFF" parent="1" vertex="1">
          <mxGeometry x="606.5000000000018" y="260.0000000000015" width="80.00000000000028" height="20" as="geometry" />
        </mxCell>
        <mxCell id="119" value="12" style="strokeColor=#DEEDFF" parent="1" vertex="1">
          <mxGeometry x="86.49999999999997" y="280.0000000000016" width="40" height="20" as="geometry" />
        </mxCell>
        <mxCell id="120" value="Mounting equipment" style="align=left;strokeColor=#DEEDFF" parent="1" vertex="1">
          <mxGeometry x="126.49999999999997" y="280.0000000000016" width="320" height="20" as="geometry" />
        </mxCell>
        <mxCell id="121" value="3 days" style="strokeColor=#DEEDFF" parent="1" vertex="1">
          <mxGeometry x="446.5000000000017" y="280.0000000000015" width="80.00000000000028" height="20" as="geometry" />
        </mxCell>
        <mxCell id="122" value="30.04.12" style="strokeColor=#DEEDFF" parent="1" vertex="1">
          <mxGeometry x="526.500000000002" y="280.0000000000015" width="80.00000000000028" height="20" as="geometry" />
        </mxCell>
        <mxCell id="123" value="2.05.12" style="strokeColor=#DEEDFF" parent="1" vertex="1">
          <mxGeometry x="606.5000000000015" y="280.0000000000018" width="80.00000000000028" height="20" as="geometry" />
        </mxCell>
        <mxCell id="124" value="13" style="strokeColor=#DEEDFF" parent="1" vertex="1">
          <mxGeometry x="86.49999999999999" y="300.00000000000136" width="40" height="20" as="geometry" />
        </mxCell>
        <mxCell id="125" value="Wiring" style="align=left;strokeColor=#DEEDFF" parent="1" vertex="1">
          <mxGeometry x="126.49999999999999" y="300.00000000000136" width="320" height="20" as="geometry" />
        </mxCell>
        <mxCell id="126" value="10 days" style="strokeColor=#DEEDFF" parent="1" vertex="1">
          <mxGeometry x="446.5000000000017" y="300.00000000000136" width="80.00000000000028" height="20" as="geometry" />
        </mxCell>
        <mxCell id="127" value="3.05.12" style="strokeColor=#DEEDFF" parent="1" vertex="1">
          <mxGeometry x="526.500000000002" y="300.00000000000136" width="80.00000000000028" height="20" as="geometry" />
        </mxCell>
        <mxCell id="128" value="16.05.12" style="strokeColor=#DEEDFF" parent="1" vertex="1">
          <mxGeometry x="606.5000000000015" y="300.0000000000016" width="80.00000000000028" height="20" as="geometry" />
        </mxCell>
        <mxCell id="129" value="14" style="strokeColor=#DEEDFF" parent="1" vertex="1">
          <mxGeometry x="86.49999999999972" y="320.0000000000018" width="40" height="20" as="geometry" />
        </mxCell>
        <mxCell id="130" value="Testing" style="align=left;strokeColor=#DEEDFF" parent="1" vertex="1">
          <mxGeometry x="126.49999999999972" y="320.0000000000018" width="320.0000000000003" height="20" as="geometry" />
        </mxCell>
        <mxCell id="131" value="2 days" style="strokeColor=#DEEDFF" parent="1" vertex="1">
          <mxGeometry x="446.5000000000014" y="320.0000000000018" width="80.00000000000028" height="20" as="geometry" />
        </mxCell>
        <mxCell id="132" value="17.05.12" style="strokeColor=#DEEDFF" parent="1" vertex="1">
          <mxGeometry x="526.5000000000018" y="320.0000000000018" width="80.00000000000028" height="20" as="geometry" />
        </mxCell>
        <mxCell id="133" value="18.05.12" style="strokeColor=#DEEDFF" parent="1" vertex="1">
          <mxGeometry x="606.5000000000011" y="320.00000000000205" width="80.00000000000028" height="20" as="geometry" />
        </mxCell>
        <mxCell id="134" value="15" style="strokeColor=#DEEDFF;fillColor=#FFFFFF" parent="1" vertex="1">
          <mxGeometry x="86.49999999999963" y="340.0000000000018" width="40" height="20" as="geometry" />
        </mxCell>
        <mxCell id="135" value="Packaging" style="align=left;strokeColor=#DEEDFF;fillColor=#FFFFFF" parent="1" vertex="1">
          <mxGeometry x="126.49999999999963" y="340.0000000000018" width="320.00000000000034" height="20" as="geometry" />
        </mxCell>
        <mxCell id="136" value="1 day" style="strokeColor=#DEEDFF;fillColor=#FFFFFF" parent="1" vertex="1">
          <mxGeometry x="446.50000000000136" y="340.0000000000018" width="80.00000000000028" height="20" as="geometry" />
        </mxCell>
        <mxCell id="137" value="21.05.12" style="strokeColor=#DEEDFF;fillColor=#FFFFFF" parent="1" vertex="1">
          <mxGeometry x="526.5000000000016" y="340.0000000000018" width="80.00000000000028" height="20" as="geometry" />
        </mxCell>
        <mxCell id="138" value="21.05.12" style="strokeColor=#DEEDFF;fillColor=#FFFFFF" parent="1" vertex="1">
          <mxGeometry x="606.5000000000011" y="340.00000000000205" width="80.00000000000028" height="20" as="geometry" />
        </mxCell>
        <mxCell id="139" value="16" style="strokeColor=#DEEDFF;fillColor=#CCE5FF" parent="1" vertex="1">
          <mxGeometry x="86.49999999999962" y="360.00000000000205" width="40" height="20" as="geometry" />
        </mxCell>
        <mxCell id="140" value="Field" style="align=left;strokeColor=#DEEDFF;fillColor=#CCE5FF" parent="1" vertex="1">
          <mxGeometry x="126.49999999999962" y="360.00000000000205" width="320.0000000000004" height="20" as="geometry" />
        </mxCell>
        <mxCell id="141" value="31 days" style="strokeColor=#DEEDFF;fillColor=#CCE5FF" parent="1" vertex="1">
          <mxGeometry x="446.50000000000136" y="360.00000000000205" width="80.00000000000028" height="20" as="geometry" />
        </mxCell>
        <mxCell id="142" value="19.04.12" style="strokeColor=#DEEDFF;fillColor=#CCE5FF" parent="1" vertex="1">
          <mxGeometry x="526.5000000000016" y="360.00000000000205" width="80.00000000000028" height="20" as="geometry" />
        </mxCell>
        <mxCell id="143" value="31.05.12" style="strokeColor=#DEEDFF;fillColor=#CCE5FF" parent="1" vertex="1">
          <mxGeometry x="606.5000000000011" y="360.0000000000023" width="80.00000000000028" height="20" as="geometry" />
        </mxCell>
        <mxCell id="144" value="17" style="strokeColor=#DEEDFF" parent="1" vertex="1">
          <mxGeometry x="86.500000000001" y="380.0000000000023" width="40" height="20" as="geometry" />
        </mxCell>
        <mxCell id="145" value="Field preparations and digging" style="align=left;strokeColor=#DEEDFF" parent="1" vertex="1">
          <mxGeometry x="126.500000000001" y="380.0000000000023" width="319.999999999999" height="20" as="geometry" />
        </mxCell>
        <mxCell id="146" value="7 days" style="strokeColor=#DEEDFF" parent="1" vertex="1">
          <mxGeometry x="446.50000000000273" y="380.0000000000023" width="80.00000000000028" height="20" as="geometry" />
        </mxCell>
        <mxCell id="147" value="19.04.12" style="strokeColor=#DEEDFF" parent="1" vertex="1">
          <mxGeometry x="526.500000000003" y="380.0000000000023" width="80.00000000000028" height="20" as="geometry" />
        </mxCell>
        <mxCell id="148" value="27.04.12" style="strokeColor=#DEEDFF" parent="1" vertex="1">
          <mxGeometry x="606.5000000000025" y="380.0000000000025" width="80.00000000000028" height="20" as="geometry" />
        </mxCell>
        <mxCell id="149" value="18" style="strokeColor=#DEEDFF" parent="1" vertex="1">
          <mxGeometry x="86.50000000000102" y="400.00000000000216" width="40" height="20" as="geometry" />
        </mxCell>
        <mxCell id="150" value="Cable laying" style="align=left;strokeColor=#DEEDFF" parent="1" vertex="1">
          <mxGeometry x="126.50000000000102" y="400.00000000000216" width="319.999999999999" height="20" as="geometry" />
        </mxCell>
        <mxCell id="151" value="4 days" style="strokeColor=#DEEDFF" parent="1" vertex="1">
          <mxGeometry x="446.50000000000273" y="400.00000000000205" width="80.00000000000028" height="20" as="geometry" />
        </mxCell>
        <mxCell id="152" value="30.04.12" style="strokeColor=#DEEDFF" parent="1" vertex="1">
          <mxGeometry x="526.500000000003" y="400.00000000000205" width="80.00000000000028" height="20" as="geometry" />
        </mxCell>
        <mxCell id="153" value="3.05.12" style="strokeColor=#DEEDFF" parent="1" vertex="1">
          <mxGeometry x="606.5000000000025" y="400.0000000000024" width="80.00000000000028" height="20" as="geometry" />
        </mxCell>
        <mxCell id="154" value="19" style="strokeColor=#DEEDFF" parent="1" vertex="1">
          <mxGeometry x="86.50000000000074" y="420.0000000000025" width="40" height="20" as="geometry" />
        </mxCell>
        <mxCell id="155" value="Installation laying" style="align=left;strokeColor=#DEEDFF" parent="1" vertex="1">
          <mxGeometry x="126.50000000000074" y="420.0000000000025" width="319.99999999999926" height="20" as="geometry" />
        </mxCell>
        <mxCell id="156" value="13 days" style="strokeColor=#DEEDFF" parent="1" vertex="1">
          <mxGeometry x="446.50000000000244" y="420.0000000000025" width="80.00000000000028" height="20" as="geometry" />
        </mxCell>
        <mxCell id="157" value="4.05.12" style="strokeColor=#DEEDFF" parent="1" vertex="1">
          <mxGeometry x="526.5000000000027" y="420.0000000000025" width="80.00000000000028" height="20" as="geometry" />
        </mxCell>
        <mxCell id="158" value="22.05.12" style="strokeColor=#DEEDFF" parent="1" vertex="1">
          <mxGeometry x="606.5000000000023" y="420.00000000000273" width="80.00000000000028" height="20" as="geometry" />
        </mxCell>
        <mxCell id="159" value="20" style="strokeColor=#DEEDFF" parent="1" vertex="1">
          <mxGeometry x="86.50000000000065" y="440.0000000000025" width="40" height="20" as="geometry" />
        </mxCell>
        <mxCell id="160" value="Mount distribution boards" style="align=left;strokeColor=#DEEDFF" parent="1" vertex="1">
          <mxGeometry x="126.50000000000065" y="440.0000000000025" width="319.9999999999993" height="20" as="geometry" />
        </mxCell>
        <mxCell id="161" value="1 day" style="strokeColor=#DEEDFF" parent="1" vertex="1">
          <mxGeometry x="446.5000000000024" y="440.0000000000025" width="80.00000000000028" height="20" as="geometry" />
        </mxCell>
        <mxCell id="162" value="23.05.12" style="strokeColor=#DEEDFF" parent="1" vertex="1">
          <mxGeometry x="526.5000000000027" y="440.0000000000025" width="80.00000000000028" height="20" as="geometry" />
        </mxCell>
        <mxCell id="163" value="23.05.12" style="strokeColor=#DEEDFF" parent="1" vertex="1">
          <mxGeometry x="606.5000000000023" y="440.00000000000273" width="80.00000000000028" height="20" as="geometry" />
        </mxCell>
        <mxCell id="164" value="21" style="strokeColor=#DEEDFF" parent="1" vertex="1">
          <mxGeometry x="86.50000000000065" y="460.00000000000284" width="40" height="20" as="geometry" />
        </mxCell>
        <mxCell id="165" value="Wiring distribution boards" style="align=left;strokeColor=#DEEDFF" parent="1" vertex="1">
          <mxGeometry x="126.50000000000065" y="460.00000000000284" width="319.9999999999993" height="20" as="geometry" />
        </mxCell>
        <mxCell id="166" value="4 days" style="strokeColor=#DEEDFF" parent="1" vertex="1">
          <mxGeometry x="446.5000000000024" y="460.00000000000273" width="80.00000000000028" height="20" as="geometry" />
        </mxCell>
        <mxCell id="167" value="24.05.12" style="strokeColor=#DEEDFF" parent="1" vertex="1">
          <mxGeometry x="526.5000000000027" y="460.00000000000273" width="80.00000000000028" height="20" as="geometry" />
        </mxCell>
        <mxCell id="168" value="29.05.12" style="strokeColor=#DEEDFF" parent="1" vertex="1">
          <mxGeometry x="606.5000000000023" y="460.00000000000307" width="80.00000000000028" height="20" as="geometry" />
        </mxCell>
        <mxCell id="169" value="22" style="strokeColor=#DEEDFF" parent="1" vertex="1">
          <mxGeometry x="86.50000000000136" y="480.00000000000307" width="40" height="20" as="geometry" />
        </mxCell>
        <mxCell id="170" value="Testing" style="align=left;strokeColor=#DEEDFF" parent="1" vertex="1">
          <mxGeometry x="126.50000000000136" y="480.00000000000307" width="319.99999999999864" height="20" as="geometry" />
        </mxCell>
        <mxCell id="171" value="2 days" style="strokeColor=#DEEDFF" parent="1" vertex="1">
          <mxGeometry x="446.5000000000031" y="480.00000000000296" width="80.00000000000028" height="20" as="geometry" />
        </mxCell>
        <mxCell id="172" value="30.05.12" style="strokeColor=#DEEDFF" parent="1" vertex="1">
          <mxGeometry x="526.5000000000034" y="480.00000000000296" width="80.00000000000028" height="20" as="geometry" />
        </mxCell>
        <mxCell id="173" value="31.05.12" style="strokeColor=#DEEDFF" parent="1" vertex="1">
          <mxGeometry x="606.500000000003" y="480.0000000000033" width="80.00000000000028" height="20" as="geometry" />
        </mxCell>
        <mxCell id="174" value="23" style="strokeColor=#DEEDFF" parent="1" vertex="1">
          <mxGeometry x="86.50000000000139" y="500.00000000000296" width="40" height="20" as="geometry" />
        </mxCell>
        <mxCell id="175" value="" style="align=left;strokeColor=#DEEDFF" parent="1" vertex="1">
          <mxGeometry x="126.50000000000139" y="500.00000000000296" width="319.99999999999864" height="20" as="geometry" />
        </mxCell>
        <mxCell id="176" value="" style="strokeColor=#DEEDFF" parent="1" vertex="1">
          <mxGeometry x="446.5000000000031" y="500.00000000000296" width="80.00000000000028" height="20" as="geometry" />
        </mxCell>
        <mxCell id="177" value="" style="strokeColor=#DEEDFF" parent="1" vertex="1">
          <mxGeometry x="526.5000000000034" y="500.00000000000296" width="80.00000000000028" height="20" as="geometry" />
        </mxCell>
        <mxCell id="178" value="" style="strokeColor=#DEEDFF" parent="1" vertex="1">
          <mxGeometry x="606.500000000003" y="500.0000000000032" width="80.00000000000028" height="20" as="geometry" />
        </mxCell>
        <mxCell id="179" value="24" style="strokeColor=#DEEDFF" parent="1" vertex="1">
          <mxGeometry x="86.50000000000111" y="520.0000000000034" width="40" height="20" as="geometry" />
        </mxCell>
        <mxCell id="180" value="" style="align=left;strokeColor=#DEEDFF" parent="1" vertex="1">
          <mxGeometry x="126.50000000000111" y="520.0000000000034" width="319.99999999999886" height="20" as="geometry" />
        </mxCell>
        <mxCell id="181" value="" style="strokeColor=#DEEDFF" parent="1" vertex="1">
          <mxGeometry x="446.50000000000284" y="520.0000000000033" width="80.00000000000028" height="20" as="geometry" />
        </mxCell>
        <mxCell id="182" value="" style="strokeColor=#DEEDFF" parent="1" vertex="1">
          <mxGeometry x="526.5000000000032" y="520.0000000000033" width="80.00000000000028" height="20" as="geometry" />
        </mxCell>
        <mxCell id="183" value="" style="strokeColor=#DEEDFF" parent="1" vertex="1">
          <mxGeometry x="606.5000000000026" y="520.0000000000036" width="80.00000000000028" height="20" as="geometry" />
        </mxCell>
        <mxCell id="184" value="25" style="strokeColor=#DEEDFF" parent="1" vertex="1">
          <mxGeometry x="86.50000000000102" y="540.0000000000034" width="40" height="20" as="geometry" />
        </mxCell>
        <mxCell id="185" value="" style="align=left;strokeColor=#DEEDFF" parent="1" vertex="1">
          <mxGeometry x="126.50000000000102" y="540.0000000000034" width="319.999999999999" height="20" as="geometry" />
        </mxCell>
        <mxCell id="186" value="" style="strokeColor=#DEEDFF" parent="1" vertex="1">
          <mxGeometry x="446.5000000000028" y="540.0000000000033" width="80.00000000000028" height="20" as="geometry" />
        </mxCell>
        <mxCell id="187" value="" style="strokeColor=#DEEDFF" parent="1" vertex="1">
          <mxGeometry x="526.5000000000031" y="540.0000000000033" width="80.00000000000028" height="20" as="geometry" />
        </mxCell>
        <mxCell id="188" value="" style="strokeColor=#DEEDFF" parent="1" vertex="1">
          <mxGeometry x="606.5000000000026" y="540.0000000000036" width="80.00000000000028" height="20" as="geometry" />
        </mxCell>
        <mxCell id="189" value="26" style="strokeColor=#DEEDFF" parent="1" vertex="1">
          <mxGeometry x="86.50000000000102" y="560.0000000000036" width="40" height="20" as="geometry" />
        </mxCell>
        <mxCell id="190" value="" style="align=left;strokeColor=#DEEDFF" parent="1" vertex="1">
          <mxGeometry x="126.500000000001" y="560.0000000000036" width="319.999999999999" height="20" as="geometry" />
        </mxCell>
        <mxCell id="191" value="" style="strokeColor=#DEEDFF" parent="1" vertex="1">
          <mxGeometry x="446.5000000000028" y="560.0000000000035" width="80.00000000000028" height="20" as="geometry" />
        </mxCell>
        <mxCell id="192" value="" style="strokeColor=#DEEDFF" parent="1" vertex="1">
          <mxGeometry x="526.5000000000031" y="560.0000000000035" width="80.00000000000028" height="20" as="geometry" />
        </mxCell>
        <mxCell id="193" value="" style="strokeColor=#DEEDFF" parent="1" vertex="1">
          <mxGeometry x="606.5000000000026" y="560.0000000000039" width="80.00000000000028" height="20" as="geometry" />
        </mxCell>
        <mxCell id="194" value="" style="strokeColor=#DEEDFF" parent="1" vertex="1">
          <mxGeometry x="706.500000000002" y="60.000000000003865" width="20" height="520" as="geometry" />
        </mxCell>
        <mxCell id="195" value="" style="strokeColor=#DEEDFF" parent="1" vertex="1">
          <mxGeometry x="726.500000000002" y="60.000000000003865" width="20" height="520" as="geometry" />
        </mxCell>
        <mxCell id="196" value="" style="strokeColor=#DEEDFF" parent="1" vertex="1">
          <mxGeometry x="746.500000000002" y="60.000000000003865" width="20" height="520" as="geometry" />
        </mxCell>
        <mxCell id="197" value="" style="strokeColor=#DEEDFF" parent="1" vertex="1">
          <mxGeometry x="766.500000000002" y="60.000000000003865" width="20" height="520" as="geometry" />
        </mxCell>
        <mxCell id="198" value="" style="strokeColor=#DEEDFF;fillColor=#D4E1FF" parent="1" vertex="1">
          <mxGeometry x="786.500000000002" y="60.0000000000075" width="20" height="520" as="geometry" />
        </mxCell>
        <mxCell id="199" value="" style="strokeColor=#DEEDFF;fillColor=#D4E1FF" parent="1" vertex="1">
          <mxGeometry x="806.500000000002" y="60.0000000000075" width="20" height="520" as="geometry" />
        </mxCell>
        <mxCell id="200" value="" style="strokeColor=#DEEDFF" parent="1" vertex="1">
          <mxGeometry x="826.500000000002" y="60.0000000000075" width="20" height="520" as="geometry" />
        </mxCell>
        <mxCell id="201" value="" style="strokeColor=#DEEDFF" parent="1" vertex="1">
          <mxGeometry x="846.5000000000016" y="60.0000000000075" width="20" height="520" as="geometry" />
        </mxCell>
        <mxCell id="202" value="" style="strokeColor=#DEEDFF" parent="1" vertex="1">
          <mxGeometry x="866.5000000000016" y="60.00000000001114" width="20" height="520" as="geometry" />
        </mxCell>
        <mxCell id="203" value="" style="strokeColor=#DEEDFF" parent="1" vertex="1">
          <mxGeometry x="886.5000000000016" y="60.00000000001114" width="20" height="520" as="geometry" />
        </mxCell>
        <mxCell id="204" value="" style="strokeColor=#DEEDFF" parent="1" vertex="1">
          <mxGeometry x="906.5000000000016" y="60.00000000001114" width="20" height="520" as="geometry" />
        </mxCell>
        <mxCell id="205" value="" style="strokeColor=#DEEDFF;fillColor=#D4E1FF" parent="1" vertex="1">
          <mxGeometry x="926.5000000000018" y="60.00000000001114" width="20" height="520" as="geometry" />
        </mxCell>
        <mxCell id="206" value="" style="strokeColor=#DEEDFF;fillColor=#D4E1FF" parent="1" vertex="1">
          <mxGeometry x="946.5000000000018" y="60.00000000001478" width="20" height="520" as="geometry" />
        </mxCell>
        <mxCell id="207" value="" style="strokeColor=#DEEDFF" parent="1" vertex="1">
          <mxGeometry x="966.5000000000018" y="60.00000000001478" width="20" height="520" as="geometry" />
        </mxCell>
        <mxCell id="208" value="" style="strokeColor=#DEEDFF" parent="1" vertex="1">
          <mxGeometry x="986.5000000000018" y="60.00000000001478" width="20" height="520" as="geometry" />
        </mxCell>
        <mxCell id="209" value="" style="strokeColor=#DEEDFF" parent="1" vertex="1">
          <mxGeometry x="1006.5000000000018" y="60.00000000000023" width="20" height="520" as="geometry" />
        </mxCell>
        <mxCell id="210" value="" style="strokeColor=#DEEDFF" parent="1" vertex="1">
          <mxGeometry x="1026.5000000000018" y="60.000000000003865" width="20" height="520" as="geometry" />
        </mxCell>
        <mxCell id="211" value="" style="strokeColor=#DEEDFF" parent="1" vertex="1">
          <mxGeometry x="1046.5000000000018" y="60.000000000003865" width="20" height="520" as="geometry" />
        </mxCell>
        <mxCell id="212" value="" style="strokeColor=#DEEDFF;fillColor=#D4E1FF" parent="1" vertex="1">
          <mxGeometry x="1066.5000000000018" y="60.000000000003865" width="20" height="520" as="geometry" />
        </mxCell>
        <mxCell id="213" value="" style="strokeColor=#DEEDFF;fillColor=#D4E1FF" parent="1" vertex="1">
          <mxGeometry x="1086.5000000000018" y="60.00000000001478" width="20" height="520" as="geometry" />
        </mxCell>
        <mxCell id="214" value="" style="strokeColor=#DEEDFF" parent="1" vertex="1">
          <mxGeometry x="1106.5000000000018" y="60.00000000001842" width="20" height="520" as="geometry" />
        </mxCell>
        <mxCell id="215" value="" style="strokeColor=#DEEDFF" parent="1" vertex="1">
          <mxGeometry x="1126.5000000000018" y="60.00000000001842" width="20" height="520" as="geometry" />
        </mxCell>
        <mxCell id="216" value="" style="strokeColor=#DEEDFF" parent="1" vertex="1">
          <mxGeometry x="1146.5000000000018" y="60.00000000001842" width="20" height="520" as="geometry" />
        </mxCell>
        <mxCell id="217" value="" style="strokeColor=#DEEDFF" parent="1" vertex="1">
          <mxGeometry x="1166.500000000002" y="60.00000000001842" width="20" height="520" as="geometry" />
        </mxCell>
        <mxCell id="218" value="" style="strokeColor=#DEEDFF" parent="1" vertex="1">
          <mxGeometry x="1186.500000000002" y="60.000000000022055" width="20" height="520" as="geometry" />
        </mxCell>
        <mxCell id="219" value="" style="strokeColor=#DEEDFF;fillColor=#D4E1FF" parent="1" vertex="1">
          <mxGeometry x="1206.500000000002" y="60.000000000022055" width="20" height="520" as="geometry" />
        </mxCell>
        <mxCell id="220" value="" style="strokeColor=#DEEDFF;fillColor=#D4E1FF" parent="1" vertex="1">
          <mxGeometry x="1226.500000000002" y="60.000000000022055" width="20" height="520" as="geometry" />
        </mxCell>
        <mxCell id="221" value="" style="strokeColor=#DEEDFF" parent="1" vertex="1">
          <mxGeometry x="1246.500000000002" y="60.000000000022055" width="20" height="520" as="geometry" />
        </mxCell>
        <mxCell id="222" value="" style="strokeColor=#DEEDFF" parent="1" vertex="1">
          <mxGeometry x="1266.500000000002" y="60.00000000002569" width="20" height="520" as="geometry" />
        </mxCell>
        <mxCell id="223" value="" style="strokeColor=#DEEDFF" parent="1" vertex="1">
          <mxGeometry x="1286.500000000002" y="60.00000000002569" width="20" height="520" as="geometry" />
        </mxCell>
        <mxCell id="224" value="" style="strokeColor=#DEEDFF" parent="1" vertex="1">
          <mxGeometry x="1306.500000000002" y="60.00000000002569" width="20" height="520" as="geometry" />
        </mxCell>
        <mxCell id="225" value="" style="strokeColor=#DEEDFF" parent="1" vertex="1">
          <mxGeometry x="1326.5000000000016" y="60.00000000002569" width="20" height="520" as="geometry" />
        </mxCell>
        <mxCell id="226" value="" style="strokeColor=#DEEDFF;fillColor=#D4E1FF" parent="1" vertex="1">
          <mxGeometry x="1346.5000000000016" y="60.00000000002933" width="20" height="520" as="geometry" />
        </mxCell>
        <mxCell id="227" value="" style="strokeColor=#DEEDFF;fillColor=#D4E1FF" parent="1" vertex="1">
          <mxGeometry x="1366.5000000000016" y="60.00000000002933" width="20" height="520" as="geometry" />
        </mxCell>
        <mxCell id="228" value="" style="strokeColor=#DEEDFF" parent="1" vertex="1">
          <mxGeometry x="1386.5000000000016" y="60.00000000002933" width="20" height="520" as="geometry" />
        </mxCell>
        <mxCell id="229" value="" style="strokeColor=#DEEDFF" parent="1" vertex="1">
          <mxGeometry x="1406.5000000000016" y="60.00000000002933" width="20" height="520" as="geometry" />
        </mxCell>
        <mxCell id="230" value="" style="strokeColor=#DEEDFF" parent="1" vertex="1">
          <mxGeometry x="1426.5000000000016" y="60.00000000003297" width="20" height="520" as="geometry" />
        </mxCell>
        <mxCell id="231" value="" style="strokeColor=#DEEDFF" parent="1" vertex="1">
          <mxGeometry x="1446.5000000000016" y="60.00000000003297" width="20" height="520" as="geometry" />
        </mxCell>
        <mxCell id="232" value="" style="strokeColor=#DEEDFF" parent="1" vertex="1">
          <mxGeometry x="1466.5000000000016" y="60.00000000003297" width="20" height="520" as="geometry" />
        </mxCell>
        <mxCell id="233" value="" style="strokeColor=#DEEDFF;fillColor=#D4E1FF" parent="1" vertex="1">
          <mxGeometry x="1486.5000000000016" y="60.00000000001842" width="20" height="520" as="geometry" />
        </mxCell>
        <mxCell id="234" value="" style="strokeColor=#DEEDFF;fillColor=#D4E1FF" parent="1" vertex="1">
          <mxGeometry x="1506.5000000000016" y="60.000000000022055" width="20" height="520" as="geometry" />
        </mxCell>
        <mxCell id="235" value="" style="strokeColor=#DEEDFF" parent="1" vertex="1">
          <mxGeometry x="1526.5000000000016" y="60.000000000022055" width="20" height="520" as="geometry" />
        </mxCell>
        <mxCell id="236" value="" style="strokeColor=#DEEDFF" parent="1" vertex="1">
          <mxGeometry x="1546.5000000000016" y="60.000000000022055" width="20" height="520" as="geometry" />
        </mxCell>
        <mxCell id="237" value="" style="strokeColor=#DEEDFF" parent="1" vertex="1">
          <mxGeometry x="1566.5000000000016" y="60.00000000003297" width="20" height="520" as="geometry" />
        </mxCell>
        <mxCell id="238" value="" style="strokeColor=#DEEDFF" parent="1" vertex="1">
          <mxGeometry x="1586.5000000000016" y="60.00000000003661" width="20" height="520" as="geometry" />
        </mxCell>
        <mxCell id="239" value="" style="strokeColor=#DEEDFF" parent="1" vertex="1">
          <mxGeometry x="1606.5000000000016" y="60.00000000003661" width="20" height="520" as="geometry" />
        </mxCell>
        <mxCell id="240" value="" style="strokeColor=#DEEDFF;fillColor=#D4E1FF" parent="1" vertex="1">
          <mxGeometry x="1626.5000000000016" y="60.00000000003661" width="20" height="520" as="geometry" />
        </mxCell>
        <mxCell id="241" value="" style="strokeColor=#DEEDFF;fillColor=#D4E1FF" parent="1" vertex="1">
          <mxGeometry x="1646.5000000000018" y="60.00000000003661" width="20" height="520" as="geometry" />
        </mxCell>
        <mxCell id="2" value="Task Name" style="fillColor=#23445D;strokeColor=#FFFFFF;strokeWidth=2;fontColor=#FFFFFF;fontStyle=1" parent="1" vertex="1">
          <mxGeometry x="126.5" y="20" width="320" height="40" as="geometry" />
        </mxCell>
        <mxCell id="3" value="" style="fillColor=#23445D;strokeColor=#FFFFFF;strokeWidth=2;fontColor=#FFFFFF;fontStyle=1" parent="1" vertex="1">
          <mxGeometry x="86.5" y="20" width="40" height="40" as="geometry" />
        </mxCell>
        <mxCell id="4" value="16 Apr 12" style="fillColor=#23445D;strokeColor=#FFFFFF;strokeWidth=2;fontColor=#FFFFFF;fontStyle=1" parent="1" vertex="1">
          <mxGeometry x="686.5000000000018" y="20.000000000000114" width="140" height="20" as="geometry" />
        </mxCell>
        <mxCell id="5" value="M" style="fillColor=#23445D;strokeColor=#FFFFFF;strokeWidth=2;fontColor=#FFFFFF;fontStyle=1" parent="1" vertex="1">
          <mxGeometry x="686.5000000000018" y="40.000000000000114" width="20" height="20" as="geometry" />
        </mxCell>
        <mxCell id="6" value="T" style="fillColor=#23445D;strokeColor=#FFFFFF;strokeWidth=2;fontColor=#FFFFFF;fontStyle=1" parent="1" vertex="1">
          <mxGeometry x="706.5000000000018" y="40.000000000000114" width="20" height="20" as="geometry" />
        </mxCell>
        <mxCell id="7" value="W" style="fillColor=#23445D;strokeColor=#FFFFFF;strokeWidth=2;fontColor=#FFFFFF;fontStyle=1" parent="1" vertex="1">
          <mxGeometry x="726.5000000000018" y="40.000000000000114" width="20" height="20" as="geometry" />
        </mxCell>
        <mxCell id="8" value="T" style="fillColor=#23445D;strokeColor=#FFFFFF;strokeWidth=2;fontColor=#FFFFFF;fontStyle=1" parent="1" vertex="1">
          <mxGeometry x="746.5000000000018" y="40.000000000000114" width="20" height="20" as="geometry" />
        </mxCell>
        <mxCell id="9" value="F" style="fillColor=#23445D;strokeColor=#FFFFFF;strokeWidth=2;fontColor=#FFFFFF;fontStyle=1" parent="1" vertex="1">
          <mxGeometry x="766.5000000000016" y="40.000000000000114" width="20" height="20" as="geometry" />
        </mxCell>
        <mxCell id="10" value="S" style="fillColor=#23445D;strokeColor=#FFFFFF;strokeWidth=2;fontColor=#FFFFFF;fontStyle=1" parent="1" vertex="1">
          <mxGeometry x="786.5000000000016" y="40.000000000000114" width="20" height="20" as="geometry" />
        </mxCell>
        <mxCell id="11" value="S" style="fillColor=#23445D;strokeColor=#FFFFFF;strokeWidth=2;fontColor=#FFFFFF;fontStyle=1" parent="1" vertex="1">
          <mxGeometry x="806.5000000000016" y="40.000000000000114" width="20" height="20" as="geometry" />
        </mxCell>
        <mxCell id="12" value="Duration" style="fillColor=#23445D;strokeColor=#FFFFFF;strokeWidth=2;fontColor=#FFFFFF;fontStyle=1" parent="1" vertex="1">
          <mxGeometry x="446.50000000000176" y="20.000000000000057" width="80.00000000000006" height="40.00000000000001" as="geometry" />
        </mxCell>
        <mxCell id="13" value="Start" style="fillColor=#23445D;strokeColor=#FFFFFF;strokeWidth=2;fontColor=#FFFFFF;fontStyle=1" parent="1" vertex="1">
          <mxGeometry x="526.5000000000018" y="20.000000000000057" width="80.00000000000006" height="40.00000000000001" as="geometry" />
        </mxCell>
        <mxCell id="14" value="ETA" style="fillColor=#23445D;strokeColor=#FFFFFF;strokeWidth=2;fontColor=#FFFFFF;fontStyle=1" parent="1" vertex="1">
          <mxGeometry x="606.5000000000019" y="20.000000000000114" width="80.00000000000006" height="40.00000000000001" as="geometry" />
        </mxCell>
        <mxCell id="15" value="23 Apr 12" style="fillColor=#23445D;strokeColor=#FFFFFF;strokeWidth=2;fontColor=#FFFFFF;fontStyle=1" parent="1" vertex="1">
          <mxGeometry x="826.5000000000018" y="20.000000000000114" width="140" height="20" as="geometry" />
        </mxCell>
        <mxCell id="16" value="M" style="fillColor=#23445D;strokeColor=#FFFFFF;strokeWidth=2;fontColor=#FFFFFF;fontStyle=1" parent="1" vertex="1">
          <mxGeometry x="826.5000000000018" y="40.000000000000114" width="20" height="20" as="geometry" />
        </mxCell>
        <mxCell id="17" value="T" style="fillColor=#23445D;strokeColor=#FFFFFF;strokeWidth=2;fontColor=#FFFFFF;fontStyle=1" parent="1" vertex="1">
          <mxGeometry x="846.5000000000018" y="40.000000000000114" width="20" height="20" as="geometry" />
        </mxCell>
        <mxCell id="18" value="W" style="fillColor=#23445D;strokeColor=#FFFFFF;strokeWidth=2;fontColor=#FFFFFF;fontStyle=1" parent="1" vertex="1">
          <mxGeometry x="866.5000000000018" y="40.000000000000114" width="20" height="20" as="geometry" />
        </mxCell>
        <mxCell id="19" value="T" style="fillColor=#23445D;strokeColor=#FFFFFF;strokeWidth=2;fontColor=#FFFFFF;fontStyle=1" parent="1" vertex="1">
          <mxGeometry x="886.5000000000018" y="40.000000000000114" width="20" height="20" as="geometry" />
        </mxCell>
        <mxCell id="20" value="F" style="fillColor=#23445D;strokeColor=#FFFFFF;strokeWidth=2;fontColor=#FFFFFF;fontStyle=1" parent="1" vertex="1">
          <mxGeometry x="906.5000000000016" y="40.000000000000114" width="20" height="20" as="geometry" />
        </mxCell>
        <mxCell id="21" value="S" style="fillColor=#23445D;strokeColor=#FFFFFF;strokeWidth=2;fontColor=#FFFFFF;fontStyle=1" parent="1" vertex="1">
          <mxGeometry x="926.5000000000016" y="40.000000000000114" width="20" height="20" as="geometry" />
        </mxCell>
        <mxCell id="22" value="S" style="fillColor=#23445D;strokeColor=#FFFFFF;strokeWidth=2;fontColor=#FFFFFF;fontStyle=1" parent="1" vertex="1">
          <mxGeometry x="946.5000000000016" y="40.000000000000114" width="20" height="20" as="geometry" />
        </mxCell>
        <mxCell id="23" value="30 Apr 12" style="fillColor=#23445D;strokeColor=#FFFFFF;strokeWidth=2;fontColor=#FFFFFF;fontStyle=1" parent="1" vertex="1">
          <mxGeometry x="966.5000000000018" y="20.000000000000057" width="140" height="20" as="geometry" />
        </mxCell>
        <mxCell id="24" value="M" style="fillColor=#23445D;strokeColor=#FFFFFF;strokeWidth=2;fontColor=#FFFFFF;fontStyle=1" parent="1" vertex="1">
          <mxGeometry x="966.5000000000018" y="40.00000000000006" width="20" height="20" as="geometry" />
        </mxCell>
        <mxCell id="25" value="T" style="fillColor=#23445D;strokeColor=#FFFFFF;strokeWidth=2;fontColor=#FFFFFF;fontStyle=1" parent="1" vertex="1">
          <mxGeometry x="986.5000000000018" y="40.00000000000006" width="20" height="20" as="geometry" />
        </mxCell>
        <mxCell id="26" value="W" style="fillColor=#23445D;strokeColor=#FFFFFF;strokeWidth=2;fontColor=#FFFFFF;fontStyle=1" parent="1" vertex="1">
          <mxGeometry x="1006.5000000000018" y="40.00000000000006" width="20" height="20" as="geometry" />
        </mxCell>
        <mxCell id="27" value="T" style="fillColor=#23445D;strokeColor=#FFFFFF;strokeWidth=2;fontColor=#FFFFFF;fontStyle=1" parent="1" vertex="1">
          <mxGeometry x="1026.5000000000018" y="40.00000000000006" width="20" height="20" as="geometry" />
        </mxCell>
        <mxCell id="28" value="F" style="fillColor=#23445D;strokeColor=#FFFFFF;strokeWidth=2;fontColor=#FFFFFF;fontStyle=1" parent="1" vertex="1">
          <mxGeometry x="1046.5000000000016" y="40.00000000000006" width="20" height="20" as="geometry" />
        </mxCell>
        <mxCell id="29" value="S" style="fillColor=#23445D;strokeColor=#FFFFFF;strokeWidth=2;fontColor=#FFFFFF;fontStyle=1" parent="1" vertex="1">
          <mxGeometry x="1066.5000000000016" y="40.00000000000006" width="20" height="20" as="geometry" />
        </mxCell>
        <mxCell id="30" value="S" style="fillColor=#23445D;strokeColor=#FFFFFF;strokeWidth=2;fontColor=#FFFFFF;fontStyle=1" parent="1" vertex="1">
          <mxGeometry x="1086.5000000000016" y="40.00000000000006" width="20" height="20" as="geometry" />
        </mxCell>
        <mxCell id="31" value="7 May 12" style="fillColor=#23445D;strokeColor=#FFFFFF;strokeWidth=2;fontColor=#FFFFFF;fontStyle=1" parent="1" vertex="1">
          <mxGeometry x="1106.5000000000018" y="20.000000000000057" width="140" height="20" as="geometry" />
        </mxCell>
        <mxCell id="32" value="M" style="fillColor=#23445D;strokeColor=#FFFFFF;strokeWidth=2;fontColor=#FFFFFF;fontStyle=1" parent="1" vertex="1">
          <mxGeometry x="1106.5000000000018" y="40.00000000000006" width="20" height="20" as="geometry" />
        </mxCell>
        <mxCell id="33" value="T" style="fillColor=#23445D;strokeColor=#FFFFFF;strokeWidth=2;fontColor=#FFFFFF;fontStyle=1" parent="1" vertex="1">
          <mxGeometry x="1126.5000000000018" y="40.00000000000006" width="20" height="20" as="geometry" />
        </mxCell>
        <mxCell id="34" value="W" style="fillColor=#23445D;strokeColor=#FFFFFF;strokeWidth=2;fontColor=#FFFFFF;fontStyle=1" parent="1" vertex="1">
          <mxGeometry x="1146.5000000000018" y="40.00000000000006" width="20" height="20" as="geometry" />
        </mxCell>
        <mxCell id="35" value="T" style="fillColor=#23445D;strokeColor=#FFFFFF;strokeWidth=2;fontColor=#FFFFFF;fontStyle=1" parent="1" vertex="1">
          <mxGeometry x="1166.5000000000018" y="40.00000000000006" width="20" height="20" as="geometry" />
        </mxCell>
        <mxCell id="36" value="F" style="fillColor=#23445D;strokeColor=#FFFFFF;strokeWidth=2;fontColor=#FFFFFF;fontStyle=1" parent="1" vertex="1">
          <mxGeometry x="1186.5000000000016" y="40" width="20" height="20" as="geometry" />
        </mxCell>
        <mxCell id="37" value="S" style="fillColor=#23445D;strokeColor=#FFFFFF;strokeWidth=2;fontColor=#FFFFFF;fontStyle=1" parent="1" vertex="1">
          <mxGeometry x="1206.5000000000016" y="40" width="20" height="20" as="geometry" />
        </mxCell>
        <mxCell id="38" value="S" style="fillColor=#23445D;strokeColor=#FFFFFF;strokeWidth=2;fontColor=#FFFFFF;fontStyle=1" parent="1" vertex="1">
          <mxGeometry x="1226.5000000000016" y="40" width="20" height="20" as="geometry" />
        </mxCell>
        <mxCell id="39" value="14 May 12" style="fillColor=#23445D;strokeColor=#FFFFFF;strokeWidth=2;fontColor=#FFFFFF;fontStyle=1" parent="1" vertex="1">
          <mxGeometry x="1246.5000000000018" y="20.000000000000057" width="140" height="20" as="geometry" />
        </mxCell>
        <mxCell id="40" value="M" style="fillColor=#23445D;strokeColor=#FFFFFF;strokeWidth=2;fontColor=#FFFFFF;fontStyle=1" parent="1" vertex="1">
          <mxGeometry x="1246.5000000000018" y="40.00000000000006" width="20" height="20" as="geometry" />
        </mxCell>
        <mxCell id="41" value="T" style="fillColor=#23445D;strokeColor=#FFFFFF;strokeWidth=2;fontColor=#FFFFFF;fontStyle=1" parent="1" vertex="1">
          <mxGeometry x="1266.5000000000018" y="40.00000000000006" width="20" height="20" as="geometry" />
        </mxCell>
        <mxCell id="42" value="W" style="fillColor=#23445D;strokeColor=#FFFFFF;strokeWidth=2;fontColor=#FFFFFF;fontStyle=1" parent="1" vertex="1">
          <mxGeometry x="1286.5000000000018" y="40.00000000000006" width="20" height="20" as="geometry" />
        </mxCell>
        <mxCell id="43" value="T" style="fillColor=#23445D;strokeColor=#FFFFFF;strokeWidth=2;fontColor=#FFFFFF;fontStyle=1" parent="1" vertex="1">
          <mxGeometry x="1306.5000000000018" y="40.00000000000006" width="20" height="20" as="geometry" />
        </mxCell>
        <mxCell id="44" value="F" style="fillColor=#23445D;strokeColor=#FFFFFF;strokeWidth=2;fontColor=#FFFFFF;fontStyle=1" parent="1" vertex="1">
          <mxGeometry x="1326.5000000000016" y="40" width="20" height="20" as="geometry" />
        </mxCell>
        <mxCell id="45" value="S" style="fillColor=#23445D;strokeColor=#FFFFFF;strokeWidth=2;fontColor=#FFFFFF;fontStyle=1" parent="1" vertex="1">
          <mxGeometry x="1346.5000000000016" y="40" width="20" height="20" as="geometry" />
        </mxCell>
        <mxCell id="46" value="S" style="fillColor=#23445D;strokeColor=#FFFFFF;strokeWidth=2;fontColor=#FFFFFF;fontStyle=1" parent="1" vertex="1">
          <mxGeometry x="1366.5000000000016" y="40" width="20" height="20" as="geometry" />
        </mxCell>
        <mxCell id="47" value="21 May 12" style="fillColor=#23445D;strokeColor=#FFFFFF;strokeWidth=2;fontColor=#FFFFFF;fontStyle=1" parent="1" vertex="1">
          <mxGeometry x="1386.5000000000018" y="20" width="140" height="20" as="geometry" />
        </mxCell>
        <mxCell id="48" value="M" style="fillColor=#23445D;strokeColor=#FFFFFF;strokeWidth=2;fontColor=#FFFFFF;fontStyle=1" parent="1" vertex="1">
          <mxGeometry x="1386.5000000000018" y="40" width="20" height="20" as="geometry" />
        </mxCell>
        <mxCell id="49" value="T" style="fillColor=#23445D;strokeColor=#FFFFFF;strokeWidth=2;fontColor=#FFFFFF;fontStyle=1" parent="1" vertex="1">
          <mxGeometry x="1406.5000000000018" y="40" width="20" height="20" as="geometry" />
        </mxCell>
        <mxCell id="50" value="W" style="fillColor=#23445D;strokeColor=#FFFFFF;strokeWidth=2;fontColor=#FFFFFF;fontStyle=1" parent="1" vertex="1">
          <mxGeometry x="1426.5000000000018" y="40" width="20" height="20" as="geometry" />
        </mxCell>
        <mxCell id="51" value="T" style="fillColor=#23445D;strokeColor=#FFFFFF;strokeWidth=2;fontColor=#FFFFFF;fontStyle=1" parent="1" vertex="1">
          <mxGeometry x="1446.5000000000018" y="40" width="20" height="20" as="geometry" />
        </mxCell>
        <mxCell id="52" value="F" style="fillColor=#23445D;strokeColor=#FFFFFF;strokeWidth=2;fontColor=#FFFFFF;fontStyle=1" parent="1" vertex="1">
          <mxGeometry x="1466.5000000000016" y="40" width="20" height="20" as="geometry" />
        </mxCell>
        <mxCell id="53" value="S" style="fillColor=#23445D;strokeColor=#FFFFFF;strokeWidth=2;fontColor=#FFFFFF;fontStyle=1" parent="1" vertex="1">
          <mxGeometry x="1486.5000000000016" y="40" width="20" height="20" as="geometry" />
        </mxCell>
        <mxCell id="54" value="S" style="fillColor=#23445D;strokeColor=#FFFFFF;strokeWidth=2;fontColor=#FFFFFF;fontStyle=1" parent="1" vertex="1">
          <mxGeometry x="1506.5000000000016" y="40" width="20" height="20" as="geometry" />
        </mxCell>
        <mxCell id="55" value="28 May 12" style="fillColor=#23445D;strokeColor=#FFFFFF;strokeWidth=2;fontColor=#FFFFFF;fontStyle=1" parent="1" vertex="1">
          <mxGeometry x="1526.5000000000018" y="20.000000000000114" width="140" height="20" as="geometry" />
        </mxCell>
        <mxCell id="56" value="M" style="fillColor=#23445D;strokeColor=#FFFFFF;strokeWidth=2;fontColor=#FFFFFF;fontStyle=1" parent="1" vertex="1">
          <mxGeometry x="1526.5000000000018" y="40.000000000000114" width="20" height="20" as="geometry" />
        </mxCell>
        <mxCell id="57" value="T" style="fillColor=#23445D;strokeColor=#FFFFFF;strokeWidth=2;fontColor=#FFFFFF;fontStyle=1" parent="1" vertex="1">
          <mxGeometry x="1546.5000000000018" y="40.000000000000114" width="20" height="20" as="geometry" />
        </mxCell>
        <mxCell id="58" value="W" style="fillColor=#23445D;strokeColor=#FFFFFF;strokeWidth=2;fontColor=#FFFFFF;fontStyle=1" parent="1" vertex="1">
          <mxGeometry x="1566.5000000000018" y="40.000000000000114" width="20" height="20" as="geometry" />
        </mxCell>
        <mxCell id="59" value="T" style="fillColor=#23445D;strokeColor=#FFFFFF;strokeWidth=2;fontColor=#FFFFFF;fontStyle=1" parent="1" vertex="1">
          <mxGeometry x="1586.5000000000018" y="40.000000000000114" width="20" height="20" as="geometry" />
        </mxCell>
        <mxCell id="60" value="F" style="fillColor=#23445D;strokeColor=#FFFFFF;strokeWidth=2;fontColor=#FFFFFF;fontStyle=1" parent="1" vertex="1">
          <mxGeometry x="1606.5000000000016" y="40.000000000000114" width="20" height="20" as="geometry" />
        </mxCell>
        <mxCell id="61" value="S" style="fillColor=#23445D;strokeColor=#FFFFFF;strokeWidth=2;fontColor=#FFFFFF;fontStyle=1" parent="1" vertex="1">
          <mxGeometry x="1626.5000000000016" y="40.000000000000114" width="20" height="20" as="geometry" />
        </mxCell>
        <mxCell id="62" value="S" style="fillColor=#23445D;strokeColor=#FFFFFF;strokeWidth=2;fontColor=#FFFFFF;fontStyle=1" parent="1" vertex="1">
          <mxGeometry x="1646.5000000000016" y="40.000000000000114" width="20" height="20" as="geometry" />
        </mxCell>
        <mxCell id="242" value="" style="shape=mxgraph.flowchart.process;fillColor=#AE4132;strokeColor=#000000;strokeWidth=2;opacity=50" parent="1" vertex="1">
          <mxGeometry x="686.5000000000015" y="80.0000000000004" width="940.0000000000006" height="19.99999999999983" as="geometry" />
        </mxCell>
        <mxCell id="243" value="" style="shape=mxgraph.arrows.bent_right_arrow;fillColor=#AE4132;strokeColor=none;strokeWidth=2;direction=south" parent="1" vertex="1">
          <mxGeometry x="706.500000000002" y="109.99999999999966" width="10.000000000000341" height="9.99999999999983" as="geometry" />
        </mxCell>
        <mxCell id="244" value="" style="shape=mxgraph.flowchart.process;fillColor=#AE4132;strokeColor=none;strokeWidth=2;opacity=50" parent="1" vertex="1">
          <mxGeometry x="686.5000000000032" y="99.99999999999972" width="19.999999999998863" height="19.99999999999983" as="geometry" />
        </mxCell>
        <mxCell id="245" value="" style="shape=mxgraph.flowchart.process;fillColor=#AE4132;strokeColor=none;strokeWidth=2;opacity=50" parent="1" vertex="1">
          <mxGeometry x="706.5000000000018" y="120.00000000000057" width="40.00000000000023" height="19.99999999999983" as="geometry" />
        </mxCell>
        <mxCell id="246" value="" style="shape=mxgraph.flowchart.process;fillColor=#AE4132;strokeColor=none;strokeWidth=2;opacity=50" parent="1" vertex="1">
          <mxGeometry x="746.5000000000018" y="140.00000000000085" width="19.999999999998863" height="19.99999999999983" as="geometry" />
        </mxCell>
        <mxCell id="247" value="" style="shape=mxgraph.flowchart.process;fillColor=#AE4132;strokeColor=none;strokeWidth=2;opacity=50" parent="1" vertex="1">
          <mxGeometry x="866.5000000000016" y="180.0000000000016" width="739.9999999999995" height="19.99999999999983" as="geometry" />
        </mxCell>
        <mxCell id="248" value="" style="shape=mxgraph.flowchart.process;fillColor=#AE4132;strokeColor=none;strokeWidth=2;opacity=50" parent="1" vertex="1">
          <mxGeometry x="1606.5000000000032" y="200.00000000000136" width="19.999999999998863" height="19.99999999999983" as="geometry" />
        </mxCell>
        <mxCell id="249" value="" style="shape=mxgraph.arrows.bent_right_arrow;fillColor=#AE4132;strokeColor=none;strokeWidth=2;direction=south" parent="1" vertex="1">
          <mxGeometry x="746.500000000001" y="129.99999999999943" width="10.000000000000341" height="9.99999999999983" as="geometry" />
        </mxCell>
        <mxCell id="250" value="" style="shape=mxgraph.arrows.bent_right_arrow;fillColor=#AE4132;strokeColor=none;strokeWidth=2;direction=south" parent="1" vertex="1">
          <mxGeometry x="766.5000000000007" y="150.0000000000001" width="10.000000000000341" height="9.99999999999983" as="geometry" />
        </mxCell>
        <mxCell id="251" value="" style="shape=mxgraph.arrows.bent_right_arrow;fillColor=#AE4132;strokeColor=none;strokeWidth=2;direction=south" parent="1" vertex="1">
          <mxGeometry x="1606.500000000002" y="190.0000000000016" width="10.000000000000341" height="9.99999999999983" as="geometry" />
        </mxCell>
        <mxCell id="252" value="" style="shape=mxgraph.flowchart.process;fillColor=#AE4132;strokeColor=none;strokeWidth=2;opacity=50" parent="1" vertex="1">
          <mxGeometry x="766.5000000000019" y="159.9999999999999" width="100.00000000000011" height="19.99999999999983" as="geometry" />
        </mxCell>
        <mxCell id="253" value="" style="shape=mxgraph.arrows.bent_right_arrow;fillColor=#AE4132;strokeColor=none;strokeWidth=2;direction=south" parent="1" vertex="1">
          <mxGeometry x="866.500000000002" y="169.99999999999983" width="10.000000000000341" height="9.99999999999983" as="geometry" />
        </mxCell>
        <mxCell id="254" value="" style="shape=mxgraph.flowchart.process;fillColor=#AE4132;strokeColor=#000000;strokeWidth=2;opacity=100" parent="1" vertex="1">
          <mxGeometry x="686.500000000001" y="60" width="940.0000000000006" height="19.99999999999983" as="geometry" />
        </mxCell>
        <mxCell id="255" value="" style="shape=mxgraph.flowchart.process;fillColor=#AE4132;strokeColor=none;strokeWidth=2;opacity=50" parent="1" vertex="1">
          <mxGeometry x="846.5" y="240.0000000000016" width="40" height="19.99999999999983" as="geometry" />
        </mxCell>
        <mxCell id="256" value="" style="shape=mxgraph.flowchart.process;fillColor=#AE4132;strokeColor=#000000;strokeWidth=2;opacity=50" parent="1" vertex="1">
          <mxGeometry x="846.5" y="220.00000000000057" width="560" height="19.9999999999998" as="geometry" />
        </mxCell>
        <mxCell id="257" value="" style="shape=mxgraph.flowchart.process;fillColor=#AE4132;strokeColor=none;strokeWidth=2;opacity=50" parent="1" vertex="1">
          <mxGeometry x="886.4999999999999" y="260.00000000000193" width="80.00000000000011" height="19.99999999999983" as="geometry" />
        </mxCell>
        <mxCell id="258" value="" style="shape=mxgraph.flowchart.process;fillColor=#AE4132;strokeColor=none;strokeWidth=2;opacity=50" parent="1" vertex="1">
          <mxGeometry x="966.4999999999999" y="280.00000000000114" width="60.000000000000114" height="19.99999999999983" as="geometry" />
        </mxCell>
        <mxCell id="259" value="" style="shape=mxgraph.flowchart.process;fillColor=#AE4132;strokeColor=none;strokeWidth=2;opacity=50" parent="1" vertex="1">
          <mxGeometry x="1026.5000000000018" y="300.00000000000045" width="279.99999999999807" height="19.99999999999983" as="geometry" />
        </mxCell>
        <mxCell id="260" value="" style="shape=mxgraph.flowchart.process;fillColor=#AE4132;strokeColor=none;strokeWidth=2;opacity=50" parent="1" vertex="1">
          <mxGeometry x="1306.500000000002" y="320.0000000000002" width="79.99999999999795" height="19.99999999999983" as="geometry" />
        </mxCell>
        <mxCell id="261" value="" style="shape=mxgraph.flowchart.process;fillColor=#AE4132;strokeColor=none;strokeWidth=2;opacity=50" parent="1" vertex="1">
          <mxGeometry x="1386.5000000000039" y="340.0000000000001" width="19.999999999996135" height="19.99999999999983" as="geometry" />
        </mxCell>
        <mxCell id="262" value="" style="shape=mxgraph.flowchart.process;fillColor=#AE4132;strokeColor=none;strokeWidth=2;opacity=50" parent="1" vertex="1">
          <mxGeometry x="746.5000000000022" y="380.00000000000205" width="219.99999999999784" height="19.99999999999983" as="geometry" />
        </mxCell>
        <mxCell id="263" value="" style="shape=mxgraph.flowchart.process;fillColor=#AE4132;strokeColor=none;strokeWidth=2;opacity=50" parent="1" vertex="1">
          <mxGeometry x="966.5000000000017" y="400.0000000000018" width="79.9999999999983" height="19.99999999999983" as="geometry" />
        </mxCell>
        <mxCell id="264" value="" style="shape=mxgraph.flowchart.process;fillColor=#AE4132;strokeColor=none;strokeWidth=2;opacity=50" parent="1" vertex="1">
          <mxGeometry x="1046.5000000000036" y="420.0000000000016" width="379.9999999999965" height="19.99999999999983" as="geometry" />
        </mxCell>
        <mxCell id="265" value="" style="shape=mxgraph.flowchart.process;fillColor=#AE4132;strokeColor=none;strokeWidth=2;opacity=50" parent="1" vertex="1">
          <mxGeometry x="1426.5000000000034" y="440.00000000000136" width="19.99999999999659" height="19.99999999999983" as="geometry" />
        </mxCell>
        <mxCell id="266" value="" style="shape=mxgraph.flowchart.process;fillColor=#AE4132;strokeColor=none;strokeWidth=2;opacity=50" parent="1" vertex="1">
          <mxGeometry x="1446.5000000000052" y="460.0000000000035" width="119.99999999999477" height="19.99999999999983" as="geometry" />
        </mxCell>
        <mxCell id="267" value="" style="shape=mxgraph.flowchart.process;fillColor=#AE4132;strokeColor=none;strokeWidth=2;opacity=50" parent="1" vertex="1">
          <mxGeometry x="1566.5" y="480.00000000000114" width="40" height="19.99999999999983" as="geometry" />
        </mxCell>
        <mxCell id="268" value="" style="shape=mxgraph.flowchart.process;fillColor=#AE4132;strokeColor=#000000;strokeWidth=2;opacity=50" parent="1" vertex="1">
          <mxGeometry x="746.5" y="360.00000000000273" width="860" height="19.999999999999773" as="geometry" />
        </mxCell>
        <mxCell id="269" value="" style="shape=mxgraph.arrows.bent_right_arrow;fillColor=#AE4132;strokeColor=none;strokeWidth=2;direction=south" parent="1" vertex="1">
          <mxGeometry x="886.5000000000024" y="250.00000000000205" width="10.000000000000341" height="9.99999999999983" as="geometry" />
        </mxCell>
        <mxCell id="270" value="" style="shape=mxgraph.arrows.bent_right_arrow;fillColor=#AE4132;strokeColor=none;strokeWidth=2;direction=south" parent="1" vertex="1">
          <mxGeometry x="966.4999999999998" y="270.00000000000193" width="10.000000000000341" height="9.99999999999983" as="geometry" />
        </mxCell>
        <mxCell id="271" value="" style="shape=mxgraph.arrows.bent_right_arrow;fillColor=#AE4132;strokeColor=none;strokeWidth=2;direction=south" parent="1" vertex="1">
          <mxGeometry x="1026.5" y="290.00000000000193" width="10.000000000000341" height="9.99999999999983" as="geometry" />
        </mxCell>
        <mxCell id="272" value="" style="shape=mxgraph.arrows.bent_right_arrow;fillColor=#AE4132;strokeColor=none;strokeWidth=2;direction=south" parent="1" vertex="1">
          <mxGeometry x="1306.5" y="310.00000000003683" width="10.000000000000341" height="9.99999999999983" as="geometry" />
        </mxCell>
        <mxCell id="273" value="" style="shape=mxgraph.arrows.bent_right_arrow;fillColor=#AE4132;strokeColor=none;strokeWidth=2;direction=south" parent="1" vertex="1">
          <mxGeometry x="1386.5" y="330.0000000000023" width="10.000000000000341" height="9.99999999999983" as="geometry" />
        </mxCell>
        <mxCell id="274" value="" style="shape=mxgraph.arrows.bent_right_arrow;fillColor=#AE4132;strokeColor=none;strokeWidth=2;direction=south" parent="1" vertex="1">
          <mxGeometry x="966.5000000000018" y="390.00000000000273" width="10.000000000000341" height="9.99999999999983" as="geometry" />
        </mxCell>
        <mxCell id="275" value="" style="shape=mxgraph.arrows.bent_right_arrow;fillColor=#AE4132;strokeColor=none;strokeWidth=2;direction=south" parent="1" vertex="1">
          <mxGeometry x="1046.5000000000036" y="410.00000000000296" width="10.000000000000341" height="9.99999999999983" as="geometry" />
        </mxCell>
        <mxCell id="276" value="" style="shape=mxgraph.arrows.bent_right_arrow;fillColor=#AE4132;strokeColor=none;strokeWidth=2;direction=south" parent="1" vertex="1">
          <mxGeometry x="1426.5000000000036" y="430.00000000000296" width="10.000000000000341" height="9.99999999999983" as="geometry" />
        </mxCell>
        <mxCell id="277" value="" style="shape=mxgraph.arrows.bent_right_arrow;fillColor=#AE4132;strokeColor=none;strokeWidth=2;direction=south" parent="1" vertex="1">
          <mxGeometry x="1446.5" y="450.00000000000375" width="10.000000000000341" height="9.99999999999983" as="geometry" />
        </mxCell>
        <mxCell id="278" value="" style="shape=mxgraph.arrows.bent_right_arrow;fillColor=#AE4132;strokeColor=none;strokeWidth=2;direction=south" parent="1" vertex="1">
          <mxGeometry x="1566.5000000000018" y="470.00000000000136" width="10.000000000000341" height="9.99999999999983" as="geometry" />
        </mxCell>
        <mxCell id="tInkeFt7KvFE8IcmmQFv-560" value="" style="strokeColor=#DEEDFF" vertex="1" parent="1">
          <mxGeometry x="580.000000000002" y="1261.0000000000002" width="100" height="1000" as="geometry" />
        </mxCell>
        <mxCell id="tInkeFt7KvFE8IcmmQFv-562" value="Managers" style="align=left;strokeColor=#DEEDFF;fillColor=#606C78;" vertex="1" parent="1">
          <mxGeometry x="20.000000000000256" y="1261" width="319.9999999999998" height="20" as="geometry" />
        </mxCell>
        <mxCell id="tInkeFt7KvFE8IcmmQFv-563" value="35 days" style="strokeColor=#DEEDFF;fillColor=#606C78;" vertex="1" parent="1">
          <mxGeometry x="340.000000000002" y="1260.9999999999998" width="80.00000000000028" height="20" as="geometry" />
        </mxCell>
        <mxCell id="tInkeFt7KvFE8IcmmQFv-564" value="16.04.12" style="strokeColor=#DEEDFF;fillColor=#606C78;" vertex="1" parent="1">
          <mxGeometry x="420.0000000000023" y="1260.9999999999998" width="80.00000000000028" height="20" as="geometry" />
        </mxCell>
        <mxCell id="tInkeFt7KvFE8IcmmQFv-565" value="1.06.12" style="strokeColor=#DEEDFF;fillColor=#606C78;" vertex="1" parent="1">
          <mxGeometry x="500.0000000000018" y="1261" width="80.00000000000028" height="20" as="geometry" />
        </mxCell>
        <mxCell id="tInkeFt7KvFE8IcmmQFv-567" value="SingletonManager.cs" style="align=left;strokeColor=#DEEDFF" vertex="1" parent="1">
          <mxGeometry x="20.000000000000284" y="1280.9999999999998" width="319.9999999999997" height="20.000000000000014" as="geometry" />
        </mxCell>
        <mxCell id="tInkeFt7KvFE8IcmmQFv-568" value="1 day" style="strokeColor=#DEEDFF" vertex="1" parent="1">
          <mxGeometry x="340.000000000002" y="1280.9999999999998" width="80.00000000000028" height="20" as="geometry" />
        </mxCell>
        <mxCell id="tInkeFt7KvFE8IcmmQFv-569" value="16.04.12" style="strokeColor=#DEEDFF" vertex="1" parent="1">
          <mxGeometry x="420.0000000000023" y="1280.9999999999998" width="80.00000000000028" height="20" as="geometry" />
        </mxCell>
        <mxCell id="tInkeFt7KvFE8IcmmQFv-570" value="16.04.12" style="strokeColor=#DEEDFF" vertex="1" parent="1">
          <mxGeometry x="500.0000000000018" y="1281" width="80.00000000000028" height="20" as="geometry" />
        </mxCell>
        <mxCell id="tInkeFt7KvFE8IcmmQFv-572" value="GameManager.cs" style="align=left;strokeColor=#DEEDFF" vertex="1" parent="1">
          <mxGeometry x="20" y="1301.0000000000002" width="320" height="20" as="geometry" />
        </mxCell>
        <mxCell id="tInkeFt7KvFE8IcmmQFv-573" value="2 days" style="strokeColor=#DEEDFF" vertex="1" parent="1">
          <mxGeometry x="340.0000000000017" y="1301" width="80.00000000000028" height="20" as="geometry" />
        </mxCell>
        <mxCell id="tInkeFt7KvFE8IcmmQFv-574" value="17.04.12" style="strokeColor=#DEEDFF" vertex="1" parent="1">
          <mxGeometry x="420.00000000000205" y="1301" width="80.00000000000028" height="20" as="geometry" />
        </mxCell>
        <mxCell id="tInkeFt7KvFE8IcmmQFv-575" value="18.04.12" style="strokeColor=#DEEDFF" vertex="1" parent="1">
          <mxGeometry x="500.0000000000015" y="1301.0000000000005" width="80.00000000000028" height="20" as="geometry" />
        </mxCell>
        <mxCell id="tInkeFt7KvFE8IcmmQFv-577" value="UIManager.cs" style="align=left;strokeColor=#DEEDFF" vertex="1" parent="1">
          <mxGeometry x="19.999999999999915" y="1321.0000000000002" width="320.0000000000001" height="20" as="geometry" />
        </mxCell>
        <mxCell id="tInkeFt7KvFE8IcmmQFv-578" value="1 day" style="strokeColor=#DEEDFF" vertex="1" parent="1">
          <mxGeometry x="340.00000000000165" y="1321" width="80.00000000000028" height="20" as="geometry" />
        </mxCell>
        <mxCell id="tInkeFt7KvFE8IcmmQFv-579" value="19.04.12" style="strokeColor=#DEEDFF" vertex="1" parent="1">
          <mxGeometry x="420.00000000000193" y="1321" width="80.00000000000028" height="20" as="geometry" />
        </mxCell>
        <mxCell id="tInkeFt7KvFE8IcmmQFv-580" value="19.04.12" style="strokeColor=#DEEDFF" vertex="1" parent="1">
          <mxGeometry x="500.0000000000015" y="1321.0000000000005" width="80.00000000000028" height="20" as="geometry" />
        </mxCell>
        <mxCell id="tInkeFt7KvFE8IcmmQFv-597" value="Systems" style="align=left;strokeColor=#DEEDFF;fillColor=#606C78;" vertex="1" parent="1">
          <mxGeometry x="20.00000000000037" y="1361.000000000001" width="319.99999999999966" height="20.00000000000003" as="geometry" />
        </mxCell>
        <mxCell id="tInkeFt7KvFE8IcmmQFv-598" value="20 days" style="strokeColor=#DEEDFF;fillColor=#606C78;" vertex="1" parent="1">
          <mxGeometry x="340.0000000000021" y="1361.000000000001" width="80.00000000000028" height="20" as="geometry" />
        </mxCell>
        <mxCell id="tInkeFt7KvFE8IcmmQFv-599" value="24.04.12" style="strokeColor=#DEEDFF;fillColor=#606C78;" vertex="1" parent="1">
          <mxGeometry x="420.0000000000025" y="1361.000000000001" width="80.00000000000028" height="20" as="geometry" />
        </mxCell>
        <mxCell id="tInkeFt7KvFE8IcmmQFv-600" value="21.05.12" style="strokeColor=#DEEDFF;fillColor=#606C78;" vertex="1" parent="1">
          <mxGeometry x="500.0000000000018" y="1361.0000000000014" width="80.00000000000028" height="20" as="geometry" />
        </mxCell>
        <mxCell id="tInkeFt7KvFE8IcmmQFv-602" value="일시정지 기능" style="align=left;strokeColor=#DEEDFF" vertex="1" parent="1">
          <mxGeometry x="20.000000000000284" y="1381.000000000001" width="319.9999999999997" height="20" as="geometry" />
        </mxCell>
        <mxCell id="tInkeFt7KvFE8IcmmQFv-603" value="2 days" style="strokeColor=#DEEDFF" vertex="1" parent="1">
          <mxGeometry x="340.00000000000205" y="1381.000000000001" width="80.00000000000028" height="20" as="geometry" />
        </mxCell>
        <mxCell id="tInkeFt7KvFE8IcmmQFv-604" value="24.04.12" style="strokeColor=#DEEDFF" vertex="1" parent="1">
          <mxGeometry x="420.0000000000023" y="1381.000000000001" width="80.00000000000028" height="20" as="geometry" />
        </mxCell>
        <mxCell id="tInkeFt7KvFE8IcmmQFv-605" value="25.04.12" style="strokeColor=#DEEDFF" vertex="1" parent="1">
          <mxGeometry x="500.0000000000018" y="1381.0000000000014" width="80.00000000000028" height="20" as="geometry" />
        </mxCell>
        <mxCell id="tInkeFt7KvFE8IcmmQFv-607" value="강화 기능" style="align=left;strokeColor=#DEEDFF" vertex="1" parent="1">
          <mxGeometry x="20.000000000000284" y="1401.0000000000014" width="319.9999999999997" height="20" as="geometry" />
        </mxCell>
        <mxCell id="tInkeFt7KvFE8IcmmQFv-608" value="2 days" style="strokeColor=#DEEDFF" vertex="1" parent="1">
          <mxGeometry x="340.00000000000205" y="1401.0000000000011" width="80.00000000000028" height="20" as="geometry" />
        </mxCell>
        <mxCell id="tInkeFt7KvFE8IcmmQFv-609" value="26.04.12" style="strokeColor=#DEEDFF" vertex="1" parent="1">
          <mxGeometry x="420.0000000000023" y="1401.0000000000011" width="80.00000000000028" height="20" as="geometry" />
        </mxCell>
        <mxCell id="tInkeFt7KvFE8IcmmQFv-610" value="27.04.12" style="strokeColor=#DEEDFF" vertex="1" parent="1">
          <mxGeometry x="500.0000000000018" y="1401.0000000000014" width="80.00000000000028" height="20" as="geometry" />
        </mxCell>
        <mxCell id="tInkeFt7KvFE8IcmmQFv-612" value="CustomerDataSO.cs" style="align=left;strokeColor=#DEEDFF" vertex="1" parent="1">
          <mxGeometry x="19.99999999999997" y="1421.0000000000016" width="320" height="20" as="geometry" />
        </mxCell>
        <mxCell id="tInkeFt7KvFE8IcmmQFv-613" value="3 days" style="strokeColor=#DEEDFF" vertex="1" parent="1">
          <mxGeometry x="340.0000000000017" y="1421.0000000000014" width="80.00000000000028" height="20" as="geometry" />
        </mxCell>
        <mxCell id="tInkeFt7KvFE8IcmmQFv-614" value="30.04.12" style="strokeColor=#DEEDFF" vertex="1" parent="1">
          <mxGeometry x="420.00000000000205" y="1421.0000000000014" width="80.00000000000028" height="20" as="geometry" />
        </mxCell>
        <mxCell id="tInkeFt7KvFE8IcmmQFv-615" value="2.05.12" style="strokeColor=#DEEDFF" vertex="1" parent="1">
          <mxGeometry x="500.0000000000015" y="1421.0000000000018" width="80.00000000000028" height="20" as="geometry" />
        </mxCell>
        <mxCell id="tInkeFt7KvFE8IcmmQFv-632" value="Characters" style="align=left;strokeColor=#DEEDFF;fillColor=#606C78;" vertex="1" parent="1">
          <mxGeometry x="19.999999999999602" y="1541.000000000002" width="320.0000000000004" height="20" as="geometry" />
        </mxCell>
        <mxCell id="tInkeFt7KvFE8IcmmQFv-633" value="31 days" style="strokeColor=#DEEDFF;fillColor=#606C78;" vertex="1" parent="1">
          <mxGeometry x="340.00000000000136" y="1541.000000000002" width="80.00000000000028" height="20" as="geometry" />
        </mxCell>
        <mxCell id="tInkeFt7KvFE8IcmmQFv-634" value="19.04.12" style="strokeColor=#DEEDFF;fillColor=#606C78;" vertex="1" parent="1">
          <mxGeometry x="420.0000000000016" y="1541.000000000002" width="80.00000000000028" height="20" as="geometry" />
        </mxCell>
        <mxCell id="tInkeFt7KvFE8IcmmQFv-635" value="31.05.12" style="strokeColor=#DEEDFF;fillColor=#606C78;" vertex="1" parent="1">
          <mxGeometry x="500.00000000000114" y="1541.0000000000023" width="80.00000000000028" height="20" as="geometry" />
        </mxCell>
        <mxCell id="tInkeFt7KvFE8IcmmQFv-637" value="Player.cs" style="align=left;strokeColor=#DEEDFF" vertex="1" parent="1">
          <mxGeometry x="20.000000000000995" y="1561.0000000000023" width="319.999999999999" height="20" as="geometry" />
        </mxCell>
        <mxCell id="tInkeFt7KvFE8IcmmQFv-638" value="7 days" style="strokeColor=#DEEDFF" vertex="1" parent="1">
          <mxGeometry x="340.00000000000273" y="1561.0000000000023" width="80.00000000000028" height="20" as="geometry" />
        </mxCell>
        <mxCell id="tInkeFt7KvFE8IcmmQFv-639" value="19.04.12" style="strokeColor=#DEEDFF" vertex="1" parent="1">
          <mxGeometry x="420.00000000000296" y="1561.0000000000023" width="80.00000000000028" height="20" as="geometry" />
        </mxCell>
        <mxCell id="tInkeFt7KvFE8IcmmQFv-640" value="27.04.12" style="strokeColor=#DEEDFF" vertex="1" parent="1">
          <mxGeometry x="500.0000000000025" y="1561.0000000000025" width="80.00000000000028" height="20" as="geometry" />
        </mxCell>
        <mxCell id="tInkeFt7KvFE8IcmmQFv-643" value="4 days" style="strokeColor=#DEEDFF" vertex="1" parent="1">
          <mxGeometry x="340.00000000000273" y="1581.000000000002" width="80.00000000000028" height="20" as="geometry" />
        </mxCell>
        <mxCell id="tInkeFt7KvFE8IcmmQFv-644" value="30.04.12" style="strokeColor=#DEEDFF" vertex="1" parent="1">
          <mxGeometry x="420.00000000000296" y="1581.000000000002" width="80.00000000000028" height="20" as="geometry" />
        </mxCell>
        <mxCell id="tInkeFt7KvFE8IcmmQFv-645" value="3.05.12" style="strokeColor=#DEEDFF" vertex="1" parent="1">
          <mxGeometry x="500.0000000000025" y="1581.0000000000023" width="80.00000000000028" height="20" as="geometry" />
        </mxCell>
        <mxCell id="tInkeFt7KvFE8IcmmQFv-734" value="Task Name" style="fillColor=#23445D;strokeColor=#FFFFFF;strokeWidth=2;fontColor=#FFFFFF;fontStyle=1" vertex="1" parent="1">
          <mxGeometry x="20" y="1241" width="320" height="20" as="geometry" />
        </mxCell>
        <mxCell id="tInkeFt7KvFE8IcmmQFv-737" value="M" style="fillColor=#23445D;strokeColor=#FFFFFF;strokeWidth=2;fontColor=#FFFFFF;fontStyle=1" vertex="1" parent="1">
          <mxGeometry x="580.0000000000018" y="1241" width="100" height="20" as="geometry" />
        </mxCell>
        <mxCell id="tInkeFt7KvFE8IcmmQFv-744" value="Duration" style="fillColor=#23445D;strokeColor=#FFFFFF;strokeWidth=2;fontColor=#FFFFFF;fontStyle=1" vertex="1" parent="1">
          <mxGeometry x="340.00000000000176" y="1241" width="80.00000000000006" height="20" as="geometry" />
        </mxCell>
        <mxCell id="tInkeFt7KvFE8IcmmQFv-745" value="Start" style="fillColor=#23445D;strokeColor=#FFFFFF;strokeWidth=2;fontColor=#FFFFFF;fontStyle=1" vertex="1" parent="1">
          <mxGeometry x="420.0000000000018" y="1241" width="80.00000000000006" height="20" as="geometry" />
        </mxCell>
        <mxCell id="tInkeFt7KvFE8IcmmQFv-746" value="ETA" style="fillColor=#23445D;strokeColor=#FFFFFF;strokeWidth=2;fontColor=#FFFFFF;fontStyle=1" vertex="1" parent="1">
          <mxGeometry x="500.00000000000193" y="1241" width="80.00000000000006" height="20" as="geometry" />
        </mxCell>
        <mxCell id="tInkeFt7KvFE8IcmmQFv-833" value="1" style="strokeColor=#DEEDFF;fillColor=#606C78;" vertex="1" parent="1">
          <mxGeometry x="2.5579538487363607e-13" y="1261" width="20" height="20" as="geometry" />
        </mxCell>
        <mxCell id="tInkeFt7KvFE8IcmmQFv-834" value="1" style="strokeColor=#DEEDFF" vertex="1" parent="1">
          <mxGeometry x="2.7000623958883807e-13" y="1280.9999999999998" width="20" height="20" as="geometry" />
        </mxCell>
        <mxCell id="tInkeFt7KvFE8IcmmQFv-835" value="2" style="strokeColor=#DEEDFF" vertex="1" parent="1">
          <mxGeometry y="1301.0000000000002" width="20" height="20" as="geometry" />
        </mxCell>
        <mxCell id="tInkeFt7KvFE8IcmmQFv-836" value="3" style="strokeColor=#DEEDFF" vertex="1" parent="1">
          <mxGeometry x="-8.526512829121202e-14" y="1321.0000000000002" width="20" height="20" as="geometry" />
        </mxCell>
        <mxCell id="tInkeFt7KvFE8IcmmQFv-840" value="2" style="strokeColor=#DEEDFF;fillColor=#606C78;" vertex="1" parent="1">
          <mxGeometry x="3.694822225952521e-13" y="1361.000000000001" width="20" height="20" as="geometry" />
        </mxCell>
        <mxCell id="tInkeFt7KvFE8IcmmQFv-841" value="1" style="strokeColor=#DEEDFF" vertex="1" parent="1">
          <mxGeometry x="2.8421709430404007e-13" y="1381.000000000001" width="20" height="20" as="geometry" />
        </mxCell>
        <mxCell id="tInkeFt7KvFE8IcmmQFv-842" value="2" style="strokeColor=#DEEDFF" vertex="1" parent="1">
          <mxGeometry x="2.7000623958883807e-13" y="1401.0000000000014" width="20" height="20" as="geometry" />
        </mxCell>
        <mxCell id="tInkeFt7KvFE8IcmmQFv-843" value="3" style="strokeColor=#DEEDFF" vertex="1" parent="1">
          <mxGeometry x="-2.842170943040401e-14" y="1421.0000000000016" width="20" height="20" as="geometry" />
        </mxCell>
        <mxCell id="tInkeFt7KvFE8IcmmQFv-847" value="3" style="strokeColor=#DEEDFF;fillColor=#606C78;" vertex="1" parent="1">
          <mxGeometry x="-3.836930773104541e-13" y="1541.000000000002" width="20" height="20" as="geometry" />
        </mxCell>
        <mxCell id="tInkeFt7KvFE8IcmmQFv-848" value="1" style="strokeColor=#DEEDFF" vertex="1" parent="1">
          <mxGeometry x="9.947598300641403e-13" y="1561.0000000000023" width="20" height="20" as="geometry" />
        </mxCell>
        <mxCell id="tInkeFt7KvFE8IcmmQFv-849" value="2" style="strokeColor=#DEEDFF" vertex="1" parent="1">
          <mxGeometry x="1.0231815394945443e-12" y="1581.0000000000023" width="20" height="20" as="geometry" />
        </mxCell>
        <mxCell id="tInkeFt7KvFE8IcmmQFv-858" value="" style="fillColor=#23445D;strokeColor=#FFFFFF;strokeWidth=2;fontColor=#FFFFFF;fontStyle=1" vertex="1" parent="1">
          <mxGeometry y="1241" width="20" height="20" as="geometry" />
        </mxCell>
        <mxCell id="tInkeFt7KvFE8IcmmQFv-860" value="Interacton Objects" style="align=left;strokeColor=#DEEDFF;fillColor=#606C78;" vertex="1" parent="1">
          <mxGeometry x="19.999999999999602" y="1701.000000000002" width="320.0000000000004" height="20" as="geometry" />
        </mxCell>
        <mxCell id="tInkeFt7KvFE8IcmmQFv-861" value="31 days" style="strokeColor=#DEEDFF;fillColor=#606C78;" vertex="1" parent="1">
          <mxGeometry x="340.00000000000136" y="1701.000000000002" width="80.00000000000028" height="20" as="geometry" />
        </mxCell>
        <mxCell id="tInkeFt7KvFE8IcmmQFv-862" value="19.04.12" style="strokeColor=#DEEDFF;fillColor=#606C78;" vertex="1" parent="1">
          <mxGeometry x="420.0000000000016" y="1701.000000000002" width="80.00000000000028" height="20" as="geometry" />
        </mxCell>
        <mxCell id="tInkeFt7KvFE8IcmmQFv-863" value="31.05.12" style="strokeColor=#DEEDFF;fillColor=#606C78;" vertex="1" parent="1">
          <mxGeometry x="500.00000000000114" y="1701.0000000000023" width="80.00000000000028" height="20" as="geometry" />
        </mxCell>
        <mxCell id="tInkeFt7KvFE8IcmmQFv-866" value="7 days" style="strokeColor=#DEEDFF" vertex="1" parent="1">
          <mxGeometry x="340.00000000000273" y="1721.0000000000023" width="80.00000000000028" height="20" as="geometry" />
        </mxCell>
        <mxCell id="tInkeFt7KvFE8IcmmQFv-867" value="19.04.12" style="strokeColor=#DEEDFF" vertex="1" parent="1">
          <mxGeometry x="420.00000000000296" y="1721.0000000000023" width="80.00000000000028" height="20" as="geometry" />
        </mxCell>
        <mxCell id="tInkeFt7KvFE8IcmmQFv-868" value="27.04.12" style="strokeColor=#DEEDFF" vertex="1" parent="1">
          <mxGeometry x="500.0000000000025" y="1721.0000000000025" width="80.00000000000028" height="20" as="geometry" />
        </mxCell>
        <mxCell id="tInkeFt7KvFE8IcmmQFv-926" value="4" style="strokeColor=#DEEDFF;fillColor=#606C78;" vertex="1" parent="1">
          <mxGeometry x="-3.836930773104541e-13" y="1701.000000000002" width="20" height="20" as="geometry" />
        </mxCell>
        <mxCell id="tInkeFt7KvFE8IcmmQFv-927" value="1" style="strokeColor=#DEEDFF" vertex="1" parent="1">
          <mxGeometry x="9.947598300641403e-13" y="1721.0000000000023" width="20" height="20" as="geometry" />
        </mxCell>
        <mxCell id="tInkeFt7KvFE8IcmmQFv-1113" value="Objects" style="align=left;strokeColor=#DEEDFF;fillColor=#606C78;" vertex="1" parent="1">
          <mxGeometry x="19.999999999999602" y="1981.0000000000018" width="320.0000000000004" height="20" as="geometry" />
        </mxCell>
        <mxCell id="tInkeFt7KvFE8IcmmQFv-1114" value="31 days" style="strokeColor=#DEEDFF;fillColor=#606C78;" vertex="1" parent="1">
          <mxGeometry x="340.00000000000136" y="1981.0000000000018" width="80.00000000000028" height="20" as="geometry" />
        </mxCell>
        <mxCell id="tInkeFt7KvFE8IcmmQFv-1115" value="19.04.12" style="strokeColor=#DEEDFF;fillColor=#606C78;" vertex="1" parent="1">
          <mxGeometry x="420.0000000000016" y="1981.0000000000018" width="80.00000000000028" height="20" as="geometry" />
        </mxCell>
        <mxCell id="tInkeFt7KvFE8IcmmQFv-1116" value="31.05.12" style="strokeColor=#DEEDFF;fillColor=#606C78;" vertex="1" parent="1">
          <mxGeometry x="500.00000000000114" y="1981.0000000000023" width="80.00000000000028" height="20" as="geometry" />
        </mxCell>
        <mxCell id="tInkeFt7KvFE8IcmmQFv-1118" value="Kichen.prefab" style="align=left;strokeColor=#DEEDFF" vertex="1" parent="1">
          <mxGeometry x="20.000000000000995" y="2001.0000000000023" width="319.999999999999" height="20" as="geometry" />
        </mxCell>
        <mxCell id="tInkeFt7KvFE8IcmmQFv-1119" value="7 days" style="strokeColor=#DEEDFF" vertex="1" parent="1">
          <mxGeometry x="340.00000000000273" y="2001.0000000000023" width="80.00000000000028" height="20" as="geometry" />
        </mxCell>
        <mxCell id="tInkeFt7KvFE8IcmmQFv-1120" value="19.04.12" style="strokeColor=#DEEDFF" vertex="1" parent="1">
          <mxGeometry x="420.00000000000296" y="2001.0000000000023" width="80.00000000000028" height="20" as="geometry" />
        </mxCell>
        <mxCell id="tInkeFt7KvFE8IcmmQFv-1121" value="27.04.12" style="strokeColor=#DEEDFF" vertex="1" parent="1">
          <mxGeometry x="500.0000000000025" y="2001.0000000000027" width="80.00000000000028" height="20" as="geometry" />
        </mxCell>
        <mxCell id="tInkeFt7KvFE8IcmmQFv-1167" value="5" style="strokeColor=#DEEDFF;fillColor=#606C78;" vertex="1" parent="1">
          <mxGeometry x="-3.836930773104541e-13" y="1981.0000000000018" width="20" height="20" as="geometry" />
        </mxCell>
        <mxCell id="tInkeFt7KvFE8IcmmQFv-1168" value="1" style="strokeColor=#DEEDFF" vertex="1" parent="1">
          <mxGeometry x="9.947598300641403e-13" y="2001.0000000000023" width="20" height="20" as="geometry" />
        </mxCell>
        <mxCell id="tInkeFt7KvFE8IcmmQFv-1179" value="" style="strokeColor=#DEEDFF" vertex="1" parent="1">
          <mxGeometry x="680.000000000002" y="1261.0000000000002" width="100" height="1000" as="geometry" />
        </mxCell>
        <mxCell id="tInkeFt7KvFE8IcmmQFv-1180" value="M" style="fillColor=#23445D;strokeColor=#FFFFFF;strokeWidth=2;fontColor=#FFFFFF;fontStyle=1" vertex="1" parent="1">
          <mxGeometry x="680.0000000000018" y="1241" width="100" height="20" as="geometry" />
        </mxCell>
        <mxCell id="tInkeFt7KvFE8IcmmQFv-1181" value="" style="strokeColor=#DEEDFF" vertex="1" parent="1">
          <mxGeometry x="780.000000000002" y="1261.0000000000002" width="100" height="1000" as="geometry" />
        </mxCell>
        <mxCell id="tInkeFt7KvFE8IcmmQFv-1182" value="M" style="fillColor=#23445D;strokeColor=#FFFFFF;strokeWidth=2;fontColor=#FFFFFF;fontStyle=1" vertex="1" parent="1">
          <mxGeometry x="780.0000000000018" y="1241" width="100" height="20" as="geometry" />
        </mxCell>
        <mxCell id="tInkeFt7KvFE8IcmmQFv-1183" value="" style="strokeColor=#DEEDFF" vertex="1" parent="1">
          <mxGeometry x="880.000000000002" y="1261.0000000000002" width="100" height="1000" as="geometry" />
        </mxCell>
        <mxCell id="tInkeFt7KvFE8IcmmQFv-1184" value="M" style="fillColor=#23445D;strokeColor=#FFFFFF;strokeWidth=2;fontColor=#FFFFFF;fontStyle=1" vertex="1" parent="1">
          <mxGeometry x="880.0000000000018" y="1241" width="100" height="20" as="geometry" />
        </mxCell>
        <mxCell id="tInkeFt7KvFE8IcmmQFv-1185" value="" style="strokeColor=#DEEDFF" vertex="1" parent="1">
          <mxGeometry x="980.000000000002" y="1261.0000000000002" width="100" height="1000" as="geometry" />
        </mxCell>
        <mxCell id="tInkeFt7KvFE8IcmmQFv-1186" value="M" style="fillColor=#23445D;strokeColor=#FFFFFF;strokeWidth=2;fontColor=#FFFFFF;fontStyle=1" vertex="1" parent="1">
          <mxGeometry x="980.0000000000018" y="1241" width="100" height="20" as="geometry" />
        </mxCell>
        <mxCell id="tInkeFt7KvFE8IcmmQFv-1187" value="" style="strokeColor=#DEEDFF" vertex="1" parent="1">
          <mxGeometry x="1080.000000000002" y="1261.0000000000002" width="100" height="1000" as="geometry" />
        </mxCell>
        <mxCell id="tInkeFt7KvFE8IcmmQFv-1188" value="M" style="fillColor=#23445D;strokeColor=#FFFFFF;strokeWidth=2;fontColor=#FFFFFF;fontStyle=1" vertex="1" parent="1">
          <mxGeometry x="1080.0000000000018" y="1241" width="100" height="20" as="geometry" />
        </mxCell>
        <mxCell id="tInkeFt7KvFE8IcmmQFv-1189" value="" style="strokeColor=#DEEDFF" vertex="1" parent="1">
          <mxGeometry x="1180.000000000002" y="1261.0000000000002" width="100" height="1000" as="geometry" />
        </mxCell>
        <mxCell id="tInkeFt7KvFE8IcmmQFv-1190" value="M" style="fillColor=#23445D;strokeColor=#FFFFFF;strokeWidth=2;fontColor=#FFFFFF;fontStyle=1" vertex="1" parent="1">
          <mxGeometry x="1180.0000000000018" y="1241" width="100" height="20" as="geometry" />
        </mxCell>
        <mxCell id="tInkeFt7KvFE8IcmmQFv-1191" value="" style="strokeColor=#DEEDFF" vertex="1" parent="1">
          <mxGeometry x="1280.000000000002" y="1261.0000000000002" width="100" height="1000" as="geometry" />
        </mxCell>
        <mxCell id="tInkeFt7KvFE8IcmmQFv-1192" value="M" style="fillColor=#23445D;strokeColor=#FFFFFF;strokeWidth=2;fontColor=#FFFFFF;fontStyle=1" vertex="1" parent="1">
          <mxGeometry x="1280.0000000000018" y="1241" width="100" height="20" as="geometry" />
        </mxCell>
        <mxCell id="tInkeFt7KvFE8IcmmQFv-1193" value="" style="strokeColor=#DEEDFF" vertex="1" parent="1">
          <mxGeometry x="1380.000000000002" y="1261.0000000000002" width="100" height="1000" as="geometry" />
        </mxCell>
        <mxCell id="tInkeFt7KvFE8IcmmQFv-1194" value="M" style="fillColor=#23445D;strokeColor=#FFFFFF;strokeWidth=2;fontColor=#FFFFFF;fontStyle=1" vertex="1" parent="1">
          <mxGeometry x="1380.0000000000018" y="1241" width="100" height="20" as="geometry" />
        </mxCell>
        <mxCell id="tInkeFt7KvFE8IcmmQFv-1195" value="" style="strokeColor=#DEEDFF" vertex="1" parent="1">
          <mxGeometry x="1480.000000000002" y="1261.0000000000002" width="100" height="1000" as="geometry" />
        </mxCell>
        <mxCell id="tInkeFt7KvFE8IcmmQFv-1196" value="M" style="fillColor=#23445D;strokeColor=#FFFFFF;strokeWidth=2;fontColor=#FFFFFF;fontStyle=1" vertex="1" parent="1">
          <mxGeometry x="1480.0000000000018" y="1241" width="100" height="20" as="geometry" />
        </mxCell>
        <mxCell id="tInkeFt7KvFE8IcmmQFv-1197" value="" style="strokeColor=#DEEDFF" vertex="1" parent="1">
          <mxGeometry x="1580.000000000002" y="1261.0000000000002" width="100" height="1000" as="geometry" />
        </mxCell>
        <mxCell id="tInkeFt7KvFE8IcmmQFv-1198" value="M" style="fillColor=#23445D;strokeColor=#FFFFFF;strokeWidth=2;fontColor=#FFFFFF;fontStyle=1" vertex="1" parent="1">
          <mxGeometry x="1580.0000000000018" y="1241" width="100" height="20" as="geometry" />
        </mxCell>
        <mxCell id="tInkeFt7KvFE8IcmmQFv-1199" value="" style="strokeColor=#DEEDFF" vertex="1" parent="1">
          <mxGeometry x="1680.000000000002" y="1261.0000000000002" width="100" height="1000" as="geometry" />
        </mxCell>
        <mxCell id="tInkeFt7KvFE8IcmmQFv-1200" value="M" style="fillColor=#23445D;strokeColor=#FFFFFF;strokeWidth=2;fontColor=#FFFFFF;fontStyle=1" vertex="1" parent="1">
          <mxGeometry x="1680.0000000000018" y="1241" width="100" height="20" as="geometry" />
        </mxCell>
        <mxCell id="tInkeFt7KvFE8IcmmQFv-1201" value="" style="shape=mxgraph.flowchart.process;fillColor=#AE4132;strokeColor=#000000;strokeWidth=2;opacity=50" vertex="1" parent="1">
          <mxGeometry x="580" y="1281.0000000000027" width="860" height="19.999999999999773" as="geometry" />
        </mxCell>
        <mxCell id="tInkeFt7KvFE8IcmmQFv-1207" value="Scriptable Objects" style="align=left;strokeColor=#DEEDFF;fillColor=#606C78;" vertex="1" parent="1">
          <mxGeometry x="19.999999999999602" y="2201.000000000002" width="320.0000000000004" height="20" as="geometry" />
        </mxCell>
        <mxCell id="tInkeFt7KvFE8IcmmQFv-1208" value="31 days" style="strokeColor=#DEEDFF;fillColor=#606C78;" vertex="1" parent="1">
          <mxGeometry x="340.00000000000136" y="2201.000000000002" width="80.00000000000028" height="20" as="geometry" />
        </mxCell>
        <mxCell id="tInkeFt7KvFE8IcmmQFv-1209" value="19.04.12" style="strokeColor=#DEEDFF;fillColor=#606C78;" vertex="1" parent="1">
          <mxGeometry x="420.0000000000016" y="2201.000000000002" width="80.00000000000028" height="20" as="geometry" />
        </mxCell>
        <mxCell id="tInkeFt7KvFE8IcmmQFv-1210" value="31.05.12" style="strokeColor=#DEEDFF;fillColor=#606C78;" vertex="1" parent="1">
          <mxGeometry x="500.00000000000114" y="2201.0000000000023" width="80.00000000000028" height="20" as="geometry" />
        </mxCell>
        <mxCell id="tInkeFt7KvFE8IcmmQFv-1211" value="Customer1.asset" style="align=left;strokeColor=#DEEDFF" vertex="1" parent="1">
          <mxGeometry x="20.000000000000995" y="2221.0000000000023" width="319.999999999999" height="20" as="geometry" />
        </mxCell>
        <mxCell id="tInkeFt7KvFE8IcmmQFv-1212" value="7 days" style="strokeColor=#DEEDFF" vertex="1" parent="1">
          <mxGeometry x="340.00000000000273" y="2221.0000000000023" width="80.00000000000028" height="20" as="geometry" />
        </mxCell>
        <mxCell id="tInkeFt7KvFE8IcmmQFv-1213" value="19.04.12" style="strokeColor=#DEEDFF" vertex="1" parent="1">
          <mxGeometry x="420.00000000000296" y="2221.0000000000023" width="80.00000000000028" height="20" as="geometry" />
        </mxCell>
        <mxCell id="tInkeFt7KvFE8IcmmQFv-1214" value="27.04.12" style="strokeColor=#DEEDFF" vertex="1" parent="1">
          <mxGeometry x="500.0000000000025" y="2221.0000000000027" width="80.00000000000028" height="20" as="geometry" />
        </mxCell>
        <mxCell id="tInkeFt7KvFE8IcmmQFv-1215" value="Customer2.asset" style="align=left;strokeColor=#DEEDFF" vertex="1" parent="1">
          <mxGeometry x="20.000000000001023" y="2241.0000000000023" width="319.999999999999" height="20" as="geometry" />
        </mxCell>
        <mxCell id="tInkeFt7KvFE8IcmmQFv-1216" value="4 days" style="strokeColor=#DEEDFF" vertex="1" parent="1">
          <mxGeometry x="340.00000000000273" y="2241.000000000002" width="80.00000000000028" height="20" as="geometry" />
        </mxCell>
        <mxCell id="tInkeFt7KvFE8IcmmQFv-1217" value="30.04.12" style="strokeColor=#DEEDFF" vertex="1" parent="1">
          <mxGeometry x="420.00000000000296" y="2241.000000000002" width="80.00000000000028" height="20" as="geometry" />
        </mxCell>
        <mxCell id="tInkeFt7KvFE8IcmmQFv-1218" value="3.05.12" style="strokeColor=#DEEDFF" vertex="1" parent="1">
          <mxGeometry x="500.0000000000025" y="2241.0000000000023" width="80.00000000000028" height="20" as="geometry" />
        </mxCell>
        <mxCell id="tInkeFt7KvFE8IcmmQFv-1219" value="6" style="strokeColor=#DEEDFF;fillColor=#606C78;" vertex="1" parent="1">
          <mxGeometry x="-3.836930773104541e-13" y="2201.000000000002" width="20" height="20" as="geometry" />
        </mxCell>
        <mxCell id="tInkeFt7KvFE8IcmmQFv-1220" value="1" style="strokeColor=#DEEDFF" vertex="1" parent="1">
          <mxGeometry x="9.947598300641403e-13" y="2221.0000000000023" width="20" height="20" as="geometry" />
        </mxCell>
        <mxCell id="tInkeFt7KvFE8IcmmQFv-1221" value="2" style="strokeColor=#DEEDFF" vertex="1" parent="1">
          <mxGeometry x="1.0231815394945443e-12" y="2241.0000000000023" width="20" height="20" as="geometry" />
        </mxCell>
        <mxCell id="tInkeFt7KvFE8IcmmQFv-1222" value="CustomerController.cs" style="align=left;strokeColor=#DEEDFF" vertex="1" parent="1">
          <mxGeometry x="20" y="1481" width="320" height="20" as="geometry" />
        </mxCell>
        <mxCell id="tInkeFt7KvFE8IcmmQFv-1223" value="EnforceCusor.cs" style="align=left;strokeColor=#DEEDFF" vertex="1" parent="1">
          <mxGeometry x="20" y="1501" width="320" height="20" as="geometry" />
        </mxCell>
        <mxCell id="tInkeFt7KvFE8IcmmQFv-1224" value="PauseCursor.cs" style="align=left;strokeColor=#DEEDFF" vertex="1" parent="1">
          <mxGeometry x="20" y="1521" width="320" height="20" as="geometry" />
        </mxCell>
        <mxCell id="tInkeFt7KvFE8IcmmQFv-1226" value="TableController.cs" style="align=left;strokeColor=#DEEDFF" vertex="1" parent="1">
          <mxGeometry x="20" y="1461" width="320" height="20" as="geometry" />
        </mxCell>
        <mxCell id="tInkeFt7KvFE8IcmmQFv-1227" value="VillianSpawner.cs" style="align=left;strokeColor=#DEEDFF" vertex="1" parent="1">
          <mxGeometry x="20" y="1441" width="320" height="20" as="geometry" />
        </mxCell>
        <mxCell id="tInkeFt7KvFE8IcmmQFv-1228" value="FoodDistribute.cs" style="align=left;strokeColor=#DEEDFF" vertex="1" parent="1">
          <mxGeometry x="20" y="1721" width="320" height="20" as="geometry" />
        </mxCell>
        <mxCell id="tInkeFt7KvFE8IcmmQFv-1229" value="Enforce.cs" style="align=left;strokeColor=#DEEDFF" vertex="1" parent="1">
          <mxGeometry x="20" y="1841" width="320" height="20" as="geometry" />
        </mxCell>
        <mxCell id="tInkeFt7KvFE8IcmmQFv-1233" value="Villian.cs" style="align=left;strokeColor=#DEEDFF" vertex="1" parent="1">
          <mxGeometry x="20" y="1601" width="320" height="20" as="geometry" />
        </mxCell>
        <mxCell id="tInkeFt7KvFE8IcmmQFv-1234" value="CookerVillian.cs" style="align=left;strokeColor=#DEEDFF" vertex="1" parent="1">
          <mxGeometry x="20" y="1621" width="320" height="20" as="geometry" />
        </mxCell>
        <mxCell id="tInkeFt7KvFE8IcmmQFv-1235" value="CounterVillian.cs" style="align=left;strokeColor=#DEEDFF" vertex="1" parent="1">
          <mxGeometry x="20" y="1641" width="320" height="20" as="geometry" />
        </mxCell>
        <mxCell id="tInkeFt7KvFE8IcmmQFv-1236" value="MoneyBoxVillian.cs" style="align=left;strokeColor=#DEEDFF" vertex="1" parent="1">
          <mxGeometry x="20" y="1661" width="320" height="20" as="geometry" />
        </mxCell>
        <mxCell id="tInkeFt7KvFE8IcmmQFv-1237" value="TableVillian.cs" style="align=left;strokeColor=#DEEDFF" vertex="1" parent="1">
          <mxGeometry x="20" y="1681" width="320" height="20" as="geometry" />
        </mxCell>
        <mxCell id="tInkeFt7KvFE8IcmmQFv-1238" value="CustomerPrefab.cs" style="align=left;strokeColor=#DEEDFF" vertex="1" parent="1">
          <mxGeometry x="20" y="1581" width="320" height="20" as="geometry" />
        </mxCell>
        <mxCell id="tInkeFt7KvFE8IcmmQFv-1239" value="Cooker.cs" style="align=left;strokeColor=#DEEDFF" vertex="1" parent="1">
          <mxGeometry x="20" y="1761" width="320" height="20" as="geometry" />
        </mxCell>
        <mxCell id="tInkeFt7KvFE8IcmmQFv-1240" value="FoodSet.cs" style="align=left;strokeColor=#DEEDFF" vertex="1" parent="1">
          <mxGeometry x="20" y="1741" width="320" height="20" as="geometry" />
        </mxCell>
        <mxCell id="tInkeFt7KvFE8IcmmQFv-1241" value="MoneyBox.cs" style="align=left;strokeColor=#DEEDFF" vertex="1" parent="1">
          <mxGeometry x="20" y="1781" width="320" height="20" as="geometry" />
        </mxCell>
        <mxCell id="tInkeFt7KvFE8IcmmQFv-1242" value="TablePrefab.cs" style="align=left;strokeColor=#DEEDFF" vertex="1" parent="1">
          <mxGeometry x="20" y="1801" width="320" height="20" as="geometry" />
        </mxCell>
        <mxCell id="tInkeFt7KvFE8IcmmQFv-1243" value="Trashcan.cs" style="align=left;strokeColor=#DEEDFF" vertex="1" parent="1">
          <mxGeometry x="20" y="1821" width="320" height="20" as="geometry" />
        </mxCell>
        <mxCell id="tInkeFt7KvFE8IcmmQFv-1244" value="SpriteManager.cs" style="align=left;strokeColor=#DEEDFF" vertex="1" parent="1">
          <mxGeometry x="19.999999999999915" y="1341.0000000000002" width="320.0000000000001" height="20" as="geometry" />
        </mxCell>
      </root>
    </mxGraphModel>
  </diagram>
</mxfile>
